<svg fill="none" viewBox="0 0 52 53" width="52" xmlns="http://www.w3.org/2000/svg">
  <path
    d="m50.38 1.22131c-2.47-2.47-6.98-1.2699998-12.54 4.3 0 0-1.9 1.83-4.72 4.78999l-29.81-1.96999-3.31 3.30999 22.62 10.15c-2.54 2.96-5 6.06-7.12 8.95l-10.15-1.27-3.95 3.95 10.01 3.81c-.92 1.76-1.48 3.31-1.62 4.58l.14.14c1.34-.14 3.03-.78 4.86-1.76l3.74 9.65 3.95-3.95-1.2-9.87c2.75-1.97 5.64-4.37 8.46-6.77l10.22 22.91 3.31-3.31-1.97-30.02c3.03-2.96 5-4.93 5-4.93 5.57-5.56999 6.77-10.07999 4.3-12.53999l-.21-.14z"
    fill="#ffcb00" />
</svg>