<svg viewBox="0 0 278 134" xmlns="http://www.w3.org/2000/svg">
  <g fill="#1d1d1b">
    <path
      d="m69.79 15.4h3.3l.59 3.69h1.74v-.2l-2.45-13.99h-3.04l-2.45 13.99v.2h1.72zm1.42-8.74h.47l1.16 7.16h-2.78l1.16-7.16z" />
    <path
      d="m81.75 19.27c2.33 0 3.47-1.64 3.47-3.51v-.85h-1.72v.85c0 .97-.53 1.89-1.74 1.89s-1.76-.91-1.76-1.89v-7.54c0-.97.55-1.89 1.76-1.89s1.74.91 1.74 1.89v.85h1.72v-.85c0-1.87-1.14-3.51-3.47-3.51s-3.49 1.64-3.49 3.51v7.54c0 1.86 1.24 3.51 3.49 3.51z" />
    <path
      d="m91.95 19.27c2.33 0 3.47-1.64 3.47-3.51v-.85h-1.72v.85c0 .97-.53 1.89-1.74 1.89s-1.76-.91-1.76-1.89v-7.54c0-.97.55-1.89 1.76-1.89s1.74.91 1.74 1.89v.85h1.72v-.85c0-1.87-1.14-3.51-3.47-3.51s-3.49 1.64-3.49 3.51v7.54c0 1.86 1.24 3.51 3.49 3.51z" />
    <path
      d="m102.15 19.27c2.33 0 3.47-1.64 3.47-3.51v-7.54c0-1.87-1.14-3.51-3.47-3.51s-3.49 1.64-3.49 3.51v7.54c0 1.86 1.24 3.51 3.49 3.51zm-1.77-11.05c0-.97.55-1.89 1.76-1.89s1.74.91 1.74 1.89v7.54c0 .97-.53 1.89-1.74 1.89s-1.76-.91-1.76-1.89z" />
    <path
      d="m110.6 9.38h.1l2.3 9.71h1.43l2.3-9.71h.1v9.71h1.64v-14.19h-2.27l-2.43 10.56h-.1l-2.44-10.56h-2.27v14.19h1.64z" />
    <path
      d="m123.64 13.96h1.74c2.33 0 3.47-1.64 3.47-3.51v-2.05c0-1.86-1.14-3.51-3.47-3.51h-3.47v14.19h1.72v-5.13zm0-7.44h1.74c1.22 0 1.74.91 1.74 1.89v2.05c0 .97-.53 1.89-1.74 1.89h-1.74v-5.82z" />
    <path
      d="m133.59 15.4h3.3l.59 3.69h1.74v-.2l-2.45-13.99h-3.04l-2.45 13.99v.2h1.72zm1.42-8.74h.47l1.16 7.16h-2.78l1.16-7.16z" />
    <path
      d="m145.55 19.27c2.33 0 3.47-1.64 3.47-3.51v-4.44h-3.55v1.62h1.82v2.82c0 .97-.53 1.89-1.74 1.89s-1.76-.91-1.76-1.89v-7.54c0-.97.55-1.89 1.76-1.89s1.74.91 1.74 1.89v.85h1.72v-.85c0-1.87-1.14-3.51-3.47-3.51s-3.49 1.64-3.49 3.51v7.54c0 1.86 1.24 3.51 3.49 3.51z" />
    <path d="m153.99 8.77h.1l3.57 10.32h2.07v-14.19h-1.65v10.4h-.1l-3.63-10.4h-1.98v14.19h1.62z" />
    <path d="m169.11 17.51h-4.21v-4.95h3.83v-1.58h-3.83v-4.5h4.21v-1.58h-5.94v14.19h5.94z" />
    <path d="m168.04 1.41v-.2h-1.56l-.76 2.55v.2h1.24z" />
    <path
      d="m183.95 15.58v-7.18c0-1.86-1.14-3.51-3.47-3.51h-3.47v14.19h3.47c2.33 0 3.47-1.64 3.47-3.51zm-5.21-9.06h1.74c1.22 0 1.74.91 1.74 1.89v7.18c0 .97-.53 1.89-1.74 1.89h-1.74z" />
    <path d="m188.92 7.27v-2.37h-1.64v2.23h.62v.1l-.7 2.41v.2h.99z" />
    <path
      d="m199.12 15.76v-10.86h-1.72v10.87c0 .97-.53 1.89-1.74 1.89s-1.76-.91-1.76-1.89v-10.87h-1.72v10.87c0 1.86 1.24 3.51 3.49 3.51s3.47-1.64 3.47-3.51z" />
    <path d="m204.08 8.77h.1l3.57 10.32h2.07v-14.19h-1.64v10.4h-.1l-3.63-10.4h-1.99v14.19h1.62z" />
    <path d="m7.68 51.82h-4.22v-4.95h3.83v-1.58h-3.83v-4.5h4.22v-1.58h-5.94v14.19h5.94z" />
    <path d="m6.6 35.72v-.2h-1.56l-.75 2.55v.2h1.24z" />
    <path
      d="m13.98 53.56 1.26 1.72h1.76v-.2l-1.26-1.72c1.44-.51 2.13-1.82 2.13-3.28v-7.54c0-1.87-1.14-3.51-3.47-3.51s-3.49 1.64-3.49 3.51v7.54c0 1.74 1.09 3.3 3.06 3.49zm-1.34-11.03c0-.97.55-1.89 1.76-1.89s1.74.91 1.74 1.89v7.54c0 .97-.53 1.89-1.74 1.89s-1.76-.91-1.76-1.89z" />
    <path
      d="m28.07 39.21h-1.72v10.87c0 .97-.53 1.89-1.74 1.89s-1.76-.91-1.76-1.89v-10.87h-1.72v10.87c0 1.86 1.24 3.51 3.49 3.51s3.47-1.64 3.47-3.51v-10.87z" />
    <path d="m31.42 39.21h1.72v14.19h-1.72z" />
    <path
      d="m38.31 48.27h1.74c2.33 0 3.47-1.64 3.47-3.51v-2.05c0-1.86-1.14-3.51-3.47-3.51h-3.47v14.19h1.72v-5.13zm0-7.44h1.74c1.22 0 1.74.91 1.74 1.89v2.05c0 .97-.53 1.89-1.74 1.89h-1.74v-5.82z" />
    <path
      d="m48.41 39.2-2.45 13.99v.2h1.72l.59-3.69h3.31l.59 3.69h1.74v-.2l-2.45-13.99h-3.04zm.12 8.93 1.16-7.16h.47l1.16 7.16h-2.78z" />
    <path
      d="m63.69 50.07v-4.44h-3.55v1.62h1.82v2.82c0 .97-.53 1.89-1.74 1.89s-1.76-.91-1.76-1.89v-7.54c0-.97.55-1.89 1.76-1.89s1.74.91 1.74 1.89v.85h1.72v-.85c0-1.87-1.14-3.51-3.47-3.51s-3.49 1.64-3.49 3.51v7.54c0 1.86 1.24 3.51 3.49 3.51s3.47-1.64 3.47-3.51z" />
    <path d="m72.98 51.82h-4.22v-4.95h3.83v-1.58h-3.83v-4.5h4.22v-1.58h-5.94v14.19h5.94z" />
    <path
      d="m80.88 39.21v14.19h3.47c2.33 0 3.47-1.64 3.47-3.51v-1.1c0-1.3-.47-2.21-1.2-2.66v-.1c.81-.57 1.2-1.48 1.2-2.64v-.69c0-1.86-1.14-3.51-3.47-3.51h-3.47zm5.21 10.68c0 .97-.53 1.89-1.74 1.89h-1.74v-4.87h1.74c1.22 0 1.74.91 1.74 1.88zm0-7.18v.69c0 .97-.53 1.89-1.74 1.89h-1.74v-4.46h1.74c1.22 0 1.74.91 1.74 1.89z" />
    <path d="m97.1 40.79v-1.58h-5.94v14.19h5.94v-1.58h-4.21v-4.95h3.83v-1.58h-3.83v-4.5z" />
    <path d="m93.72 38.07v.2h1.23l1.08-2.55v-.2h-1.56z" />
    <path d="m104.79 53.4v-12.57h2.87v-1.62h-7.52v1.62h2.92v12.57z" />
    <path
      d="m113.99 39.02c-2.25 0-3.49 1.64-3.49 3.51v7.54c0 1.86 1.24 3.51 3.49 3.51s3.47-1.64 3.47-3.51v-7.54c0-1.87-1.14-3.51-3.47-3.51zm1.74 11.05c0 .97-.53 1.89-1.74 1.89s-1.76-.91-1.76-1.89v-7.54c0-.97.55-1.89 1.76-1.89s1.74.91 1.74 1.89z" />
    <path d="m122.42 43.08h.1l3.57 10.32h2.07v-14.19h-1.64v10.4h-.1l-3.63-10.4h-1.99v14.19h1.62z" />
    <path d="m131.51 55.91v.2h.99l.73-2.57v-2.37h-1.64v2.23h.62v.1z" />
    <path d="m146.24 53.4 2.43-13.99v-.2h-1.74l-2 12.42h-.47l-2.01-12.42h-1.72v.2l2.43 13.99z" />
    <path
      d="m155.1 53.58c2.33 0 3.47-1.64 3.47-3.51v-7.54c0-1.87-1.14-3.51-3.47-3.51s-3.49 1.64-3.49 3.51v7.54c0 1.86 1.24 3.51 3.49 3.51zm-1.76-11.05c0-.97.55-1.89 1.76-1.89s1.74.91 1.74 1.89v7.54c0 .97-.53 1.89-1.74 1.89s-1.76-.91-1.76-1.89z" />
    <path
      d="m165.3 53.58c2.33 0 3.47-1.64 3.47-3.51v-10.87h-1.72v10.87c0 .97-.53 1.89-1.74 1.89s-1.76-.91-1.76-1.89v-10.87h-1.72v10.87c0 1.86 1.24 3.51 3.49 3.51z" />
    <path
      d="m175.44 53.6c2.33 0 3.53-1.64 3.53-3.51v-1.18c0-1.87-.87-2.84-2.55-3.51l-1.07-.43c-1.1-.42-1.42-.95-1.42-2.07v-.49c0-.97.57-1.78 1.68-1.78 1.22 0 1.68.81 1.68 1.78v.95h1.66v-.95c0-1.87-1.07-3.41-3.34-3.41-2.15 0-3.41 1.54-3.41 3.41v.53c0 1.91.73 2.9 2.43 3.59l1.11.45c.95.39 1.5.75 1.5 1.93v1.18c0 .97-.53 1.89-1.81 1.89s-1.74-.87-1.74-1.89v-.87h-1.68v.87c0 1.87 1.18 3.51 3.43 3.51z" />
    <path
      d="m188.59 48.27h1.74c2.33 0 3.47-1.64 3.47-3.51v-2.05c0-1.86-1.14-3.51-3.47-3.51h-3.47v14.19h1.72v-5.13zm0-7.44h1.74c1.22 0 1.74.91 1.74 1.89v2.05c0 .97-.53 1.89-1.74 1.89h-1.74v-5.82z" />
    <path
      d="m200.72 47.7 1.48 5.7h1.74v-.2l-1.64-5.9c1.11-.61 1.68-1.85 1.68-3.14v-1.44c0-1.86-1.14-3.51-3.47-3.51h-3.47v14.19h1.72v-5.7h1.95zm-1.95-6.87h1.74c1.22 0 1.74.91 1.74 1.89v1.44c0 .98-.53 1.89-1.74 1.89h-1.74v-5.21z" />
    <path d="m213.27 40.79v-1.58h-5.95v14.19h5.95v-1.58h-4.22v-4.95h3.83v-1.58h-3.83v-4.5z" />
    <path d="m218.23 43.08h.1l3.57 10.32h2.07v-14.19h-1.64v10.4h-.1l-3.63-10.4h-1.99v14.19h1.62z" />
    <path d="m233.36 51.82h-4.22v-4.95h3.83v-1.58h-3.83v-4.5h4.22v-1.58h-5.95v14.19h5.95z" />
    <path d="m243.55 51.78h-5.11v-.13l5.01-10.74v-1.7h-6.89v1.64h4.96v.14l-5.02 10.72v1.69h7.05z" />
    <path d="m253.08 39.21h-1.72v14.19h5.84v-1.62h-4.12z" />
    <path d="m265.98 51.82h-4.22v-4.95h3.83v-1.58h-3.83v-4.5h4.22v-1.58h-5.95v14.19h5.95z" />
    <path
      d="m272.65 53.61c2.33 0 3.53-1.64 3.53-3.51v-1.17c0-1.86-.87-2.84-2.55-3.51l-1.07-.43c-1.09-.42-1.42-.95-1.42-2.07v-.49c0-.97.57-1.78 1.68-1.78 1.22 0 1.68.81 1.68 1.78v.95h1.66v-.95c0-1.86-1.07-3.4-3.34-3.4-2.15 0-3.4 1.54-3.4 3.4v.53c0 1.9.73 2.9 2.43 3.59l1.11.45c.95.39 1.5.75 1.5 1.93v1.17c0 .97-.53 1.88-1.8 1.88s-1.74-.87-1.74-1.88v-.87h-1.68v.87c0 1.86 1.18 3.51 3.42 3.51z" />
    <path
      d="m12.4 78.26c3.27 0 6.14 1.27 8.8 5.07h.37l.16-9.9h-.41c-.49.78-1.1 1.27-1.88 1.27-1.23 0-3.68-1.56-7.36-1.56-8.14 0-12.07 5.81-12.07 14.36s3.81 14.04 12.19 14.04c3.76 0 5.69-1.55 7.04-1.55.94 0 1.51.53 2.09 1.31h.41l-.16-9.94h-.37c-2.62 3.97-5.44 5.07-8.8 5.07-3.56 0-5.81-2.46-5.81-9.04s2.25-9.13 5.81-9.13z" />
    <path
      d="m40.19 73.15c-8.31 0-12.73 5.73-12.73 14.28s4.38 14.12 12.73 14.12 12.73-5.65 12.73-14.12-4.34-14.28-12.73-14.28zm0 23.24c-4.01 0-6.14-2.99-6.14-8.96s2.13-9.13 6.14-9.13 6.14 3.07 6.14 9.13-2.13 8.96-6.14 8.96z" />
    <path
      d="m91.92 73.97-.08-.41h-10.92l-.08.41c.82.37 1.39 1.23 1.39 2.41 0 1.47-1.02 3.68-2.95 6.63l-4.01 6.22-4.05-6.22c-1.84-2.78-2.91-4.95-2.91-6.55 0-.98.37-1.88 1.39-2.5l-.08-.41h-11.58l-.08.41c1.06.33 1.88 1.92 2.21 4.17.29 1.92.29 5.57.29 8.96s0 7.45-.29 9.45c-.33 2.25-1.15 3.85-2.21 4.17l.08.41h10.64l.08-.41c-1.15-.29-2.21-1.84-2.45-4.22-.29-2.95-.25-7.53-.08-11.5 3.19 4.54 5.48 8.06 8.47 13.22h.37c3.19-4.99 5.61-8.8 8.59-13.22.12 3.64.21 8.8-.16 11.54-.33 2.42-1.27 3.89-2.42 4.17l.08.41h10.68l.08-.41c-1.06-.33-1.88-1.92-2.21-4.17-.29-2-.29-5.97-.29-9.45s0-7.04.29-8.96c.33-2.25 1.15-3.84 2.21-4.17z" />
    <path
      d="m130.64 73.97-.08-.41h-10.92l-.08.41c.82.37 1.39 1.23 1.39 2.41 0 1.47-1.02 3.68-2.95 6.63l-4.01 6.22-4.05-6.22c-1.84-2.78-2.91-4.95-2.91-6.55 0-.98.37-1.88 1.39-2.5l-.08-.41h-11.58l-.08.41c1.06.33 1.88 1.92 2.21 4.17.29 1.92.29 5.57.29 8.96s0 7.45-.29 9.45c-.33 2.25-1.15 3.85-2.21 4.17l.08.41h10.64l.08-.41c-1.15-.29-2.21-1.84-2.45-4.22-.29-2.95-.25-7.53-.08-11.5 3.19 4.54 5.48 8.06 8.47 13.22h.37c3.19-4.99 5.61-8.8 8.59-13.22.12 3.64.21 8.8-.16 11.54-.33 2.42-1.27 3.89-2.42 4.17l.08.41h10.68l.08-.41c-1.06-.33-1.88-1.92-2.21-4.17-.29-2-.29-5.97-.29-9.45s0-7.04.29-8.96c.33-2.25 1.15-3.84 2.21-4.17z" />
    <path
      d="m155.07 73.97v-.41h-12.11l-.08.41c.74.41 1.06.94 1.06 1.76 0 2.25-4.99 16.98-6.47 20.74-.86 2.21-1.43 3.68-2.62 4.26v.41h9.86l.04-.41c-.94-.25-1.39-1.02-1.39-2.25 0-1.31.45-2.86.98-4.46h8.72c.49 1.35 1.02 3.23 1.02 4.42 0 1.43-.65 2.01-1.35 2.29l.04.41h10.19l.04-.41c-1.02-.49-1.6-1.8-2.37-3.76-1.23-3.15-6.59-19.07-6.59-21.28 0-.78.29-1.27 1.02-1.72zm-9.45 15.38c1.15-3.97 2.17-7.16 3.27-10.56 1.19 3.56 2.17 6.83 3.23 10.56h-6.51z" />
    <path
      d="m194.73 73.97-.08-.41h-9.99l-.08.45c1.06.29 1.92 1.84 2.25 4.21.2 1.47.29 3.85.29 7.57v4.01c-2.33-2.5-4.38-4.71-6.1-6.75-3.97-4.71-4.75-5.85-4.75-7.2 0-.74.33-1.27 1.27-1.88l-.08-.41h-10.15l-.08.41c1.06.33 1.88 1.92 2.21 4.17.29 1.92.29 5.57.29 8.96s0 7.45-.29 9.45c-.33 2.25-1.15 3.85-2.21 4.17l.08.41h9.98l.08-.45c-1.06-.29-1.92-1.84-2.25-4.21-.25-1.72-.29-4.38-.29-7.28v-4.71c2.62 2.66 4.83 5.16 7.16 8.02 3.11 3.81 3.72 5.11 3.72 6.3 0 .74-.37 1.27-1.31 1.92l.08.41h10.15l.08-.41c-1.07-.33-1.88-1.92-2.21-4.17-.29-2-.29-5.97-.29-9.45s0-7.04.29-8.96c.33-2.25 1.15-3.84 2.21-4.17z" />
    <path
      d="m210.9 73.56c-2.66 0-8.68.08-11.34 0l-.08.41c1.23.37 1.88 1.72 2.17 4.21.21 1.64.25 5.28.25 8.1 0 4.21-.04 7.9-.25 10.07-.25 2.62-.94 4.05-2.17 4.38l.08.41c2.66-.08 8.39 0 11.21 0 8.92 0 14.32-5.07 14.32-14.57 0-8.47-5.36-13.01-14.2-13.01zm-.24 22.42h-2.7c-.12-2.66-.16-6.01-.16-9.37 0-2.91.12-5.69.16-7.9h2.95c4.75 0 7.61 2.46 7.61 8.35s-3.03 8.92-7.86 8.92z" />
    <path
      d="m242.13 96.43c-1.15 0-2.37 0-3.52-.04-.08-2.01-.12-4.87-.04-7.12.7-.04 1.43-.08 2.21-.08 2.37 0 3.64.33 4.91 2h.41c-.04-1.47-.04-7.08 0-8.51h-.41c-1.14 1.43-2.66 1.92-4.87 1.92-.74 0-1.59-.04-2.29-.08 0-1.1.04-5.16.08-6.14 1.06-.08 2.37-.12 3.48-.12 5.73 0 7.33 1.55 8.92 4.46h.41l.17-9.25c-4.87.16-6.34.16-10.8.16-3.4 0-7.16 0-10.56-.08l-.08.41c1.06.33 1.88 1.92 2.21 4.17.29 1.92.29 5.57.29 8.96s0 7.45-.29 9.45c-.33 2.25-1.15 3.85-2.21 4.17l.08.41c3.68-.08 7.28-.08 10.88-.08 4.13 0 5.85.04 10.52.16l.16-9.29h-.41c-1.68 2.95-3.84 4.5-9.25 4.5z" />
    <path
      d="m267.84 84.36c-3.48-.86-4.22-1.92-4.22-3.4 0-1.92 1.43-2.99 4.01-2.99 3.19 0 5.85 1.6 8.59 5.36h.41l.16-9.9h-.41c-.61.86-1.15 1.27-1.92 1.27-1.11 0-2.54-1.55-7.53-1.55-5.48 0-9.49 2.82-9.49 8.43s3.81 7.08 10.27 8.55c3.36.78 4.17 1.88 4.17 3.52 0 1.88-1.6 3.07-4.34 3.07-3.64 0-6.22-1.31-9.41-5.36h-.41l-.16 9.9h.41c.53-.82 1.06-1.27 1.92-1.27 1.8 0 3.52 1.55 8.31 1.55 5.69 0 9.86-2.54 9.86-8.39s-3.68-7.2-10.23-8.8z" />
    <path
      d="m99.02 119.29h-3.46v14.18h3.46c2.33 0 3.46-1.64 3.46-3.51v-7.17c0-1.86-1.13-3.5-3.46-3.5zm1.74 10.68c0 .97-.53 1.88-1.74 1.88h-1.74v-10.94h1.74c1.22 0 1.74.91 1.74 1.88v7.17z" />
    <path
      d="m110.95 130.15c0 .97-.53 1.88-1.74 1.88s-1.76-.91-1.76-1.88v-10.86h-1.72v10.86c0 1.86 1.24 3.5 3.48 3.5s3.47-1.64 3.47-3.5v-10.86h-1.72v10.86z" />
    <path
      d="m124.87 125.49-1.07-.43c-1.09-.42-1.42-.95-1.42-2.07v-.49c0-.97.57-1.78 1.68-1.78 1.22 0 1.68.81 1.68 1.78v.95h1.66v-.95c0-1.86-1.07-3.4-3.34-3.4-2.15 0-3.4 1.54-3.4 3.4v.53c0 1.9.73 2.9 2.43 3.59l1.11.45c.95.39 1.5.75 1.5 1.92v1.18c0 .97-.53 1.88-1.8 1.88s-1.74-.87-1.74-1.88v-.87h-1.68v.87c0 1.86 1.18 3.51 3.42 3.51s3.53-1.64 3.53-3.51v-1.18c0-1.86-.87-2.84-2.55-3.5z" />
    <path
      d="m135.89 130.15c0 .97-.53 1.88-1.74 1.88s-1.76-.91-1.76-1.88v-10.86h-1.72v10.86c0 1.86 1.24 3.5 3.48 3.5s3.46-1.64 3.46-3.5v-10.86h-1.72z" />
    <path
      d="m144.33 119.11c-2.25 0-3.48 1.64-3.48 3.51v7.54c0 1.86 1.24 3.5 3.48 3.5s3.47-1.64 3.47-3.5v-.85h-1.72v.85c0 .97-.53 1.88-1.74 1.88s-1.76-.91-1.76-1.88v-7.54c0-.97.55-1.89 1.76-1.89s1.74.91 1.74 1.89v.85h1.72v-.85c0-1.86-1.14-3.51-3.47-3.51z" />
    <path
      d="m154.52 119.11c-2.25 0-3.48 1.64-3.48 3.51v7.54c0 1.86 1.24 3.5 3.48 3.5s3.47-1.64 3.47-3.5v-.85h-1.72v.85c0 .97-.53 1.88-1.74 1.88s-1.76-.91-1.76-1.88v-7.54c0-.97.55-1.89 1.76-1.89s1.74.91 1.74 1.89v.85h1.72v-.85c0-1.86-1.14-3.51-3.47-3.51z" />
    <path d="m163.08 115.64v.21l1.07 2.55h1.24v-.2l-.75-2.56z" />
    <path d="m161.23 133.53h5.94v-1.58h-4.22v-4.95h3.83v-1.58h-3.83v-4.5h4.22v-1.58h-5.94z" />
    <path
      d="m174.81 125.54-1.07-.43c-1.09-.42-1.42-.95-1.42-2.07v-.49c0-.97.57-1.78 1.68-1.78 1.22 0 1.68.81 1.68 1.78v.95h1.66v-.95c0-1.87-1.07-3.41-3.34-3.41-2.15 0-3.41 1.54-3.41 3.41v.53c0 1.91.73 2.9 2.43 3.59l1.11.45c.95.39 1.5.75 1.5 1.93v1.18c0 .97-.53 1.89-1.81 1.89s-1.74-.87-1.74-1.89v-.87h-1.68v.87c0 1.87 1.18 3.51 3.43 3.51s3.53-1.64 3.53-3.51v-1.18c0-1.87-.87-2.84-2.56-3.51z" />
    <path d="m185.38 121.28.26 7.75h1.11l.35-7.75v-1.95h-1.72z" />
    <path d="m185.4 131.3h1.64v2.23h-1.64z" />
  </g>
</svg>