<svg viewBox="0 0 200 200" xmlns="http://www.w3.org/2000/svg"><g fill="#fff"><path d="m13.3 116.8c1.8 0 3.3-1.6 3.3-3.5s-1.5-3.5-3.3-3.5-3.3 1.6-3.3 3.5 1.5 3.5 3.3 3.5"/><path d="m186.1 115.7c1.8 0 3.3-1.6 3.3-3.5s-1.5-3.5-3.3-3.5-3.3 1.6-3.3 3.5 1.5 3.5 3.3 3.5"/><path d="m150.1 96.2v-.2s0 0-.2-.2h-.1l-23-8.4v-5-.2s0 0 0-.2l-46.8-16.2h-.4l-23.4 8.5s0 0-.2.2v.2 21.6c0 .3.2.5.4.6l23 8v20.8c0 .2.2.5.4.6l23.4 8.5h.2l46.8-16.2c.2 0 .4-.3.4-.6v-21.6l-.4-.2zm-23.4-7.7 21.1 7.7-21.1 7.3s0-15 0-15zm-1.2 14.9-22.2 8.1v-20.3l22.2-8.1zm-23.4 29.7-22.2-8.1v-19.9l20.9 7.3 1.3.5v20.3zm.6-42.9-45-15.6 21.7-7.9 45 15.6z"/><path d="m183.5 142.3-4.8-2.4 2.5-5-2.1-1-2.5 5-4.5-2.3 2.7-5.4-2.1-1.1-3.8 7.7 15.7 7.8 3.9-7.9-2.1-1.1-2.8 5.6zm-6.6 10.9-12.6-8.3-1.4 2.1 14.6 9.6 4.6-7-2-1.3-3.2 4.8zm-7.9 9.8-11.3-10-1.7 1.9 13.1 11.6 5.5-6.2-1.8-1.6zm-12.8 7.2-2.2-4.3c-.5-1.1-1.4-2.5-1.9-3.3.7.6 2 1.7 2.9 2.4l3.9 2.9zm7.5 1.3 2-1.7-14.7-10.5-2.1 1.8 7.9 16.2 2-1.7-1.7-3.2 3.5-3 2.9 2.2h.2zm-17.4 9.6-6.7-10.8 1.6-1c1.5-1 3-.6 4 1.1l3.4 5.5c1.1 1.8.8 3.2-.7 4.2zm-.9 3.4 3.7-2.3c2.9-1.8 3.5-4.6 1.6-7.5l-3.5-5.6c-1.8-2.9-4.6-3.6-7.5-1.8l-3.7 2.3 9.3 14.8zm-20.7 2-.4-4.8c0-1.2-.4-2.8-.5-3.8.4.8 1.2 2.3 1.8 3.3l2.5 4.1-3.4 1.1zm6.5 4 2.5-.8-9.6-15.3-2.6.8 1.2 18 2.5-.8-.3-3.6 4.4-1.4zm-17.7 1.9-2.5-14.9-2.5.4 2.9 17.3 8.2-1.4-.4-2.4-5.7.9zm-21.8.7.3-5.3 5.6.4v-2.3s-5.4-.4-5.4-.4l.3-5.1 6 .4v-2.4s-8.4-.5-8.4-.5l-1.1 17.5 8.8.6v-2.4s-6.1-.4-6.1-.4zm-12.5-1.9 2.8-14.8-2.5-.5-3.3 17.2 8.2 1.6.5-2.4zm-13.6-1.4c2.9 1 5.5-.2 6.7-3.6l4-11.4-2.5-.9-4 11.4c-.7 2.1-2 2.7-3.5 2.2s-2.1-1.8-1.4-3.9l4-11.4-2.5-.9-4 11.4c-1.2 3.4 0 6 3 7m-13.1-8.8c-1.6-.9-1.8-2.4-.7-4.3l3.1-5.6c1.1-1.9 2.5-2.5 4.1-1.6s1.8 2.4.7 4.3l-3.1 5.6c-1.1 1.9-2.5 2.5-4.1 1.6m-1.2 2.1c2.9 1.6 5.8.7 7.5-2.5l3.1-5.6c1.8-3.2 1.1-6.1-1.8-7.7s-5.8-.7-7.5 2.5l-3.1 5.6c-1.8 3.2-1.1 6.1 1.8 7.7m-12.6-8.7c2.5 2 5.2 1.7 7.5-.9l-1.9-1.6c-1.4 1.4-2.7 1.6-4 .6-1.2-1-1.3-2.3 0-3.9l4.5-5.6c1.3-1.6 2.7-1.8 3.8-.9 1.3 1.1 1.4 2.3.3 4l1.9 1.6c2.1-2.8 1.8-5.5-.7-7.4-2.4-1.9-5.1-1.7-7.4 1.1l-4.5 5.6c-2.2 2.7-1.9 5.5.5 7.4m-.9-26.2-5.4 4.2c-1.2.9-3.2 2.7-4.5 3.9.6-1 1.5-2.5 2.1-3.6l4.6-8.6-1.5-2-13.9 10.6 1.5 2 5.4-4.1c1.3-1 3.3-2.7 4.6-3.9-.6 1.1-1.6 2.7-2.4 3.9l-4.4 8.3 1.5 2 13.9-10.6-1.5-2zm-22.2-6.4c-.9-1.6-.2-3 1.7-4l5.7-3c1.9-1 3.4-.8 4.3.8.8 1.6.2 3-1.7 4l-5.7 3c-1.9 1-3.4.7-4.3-.8m-2.2 1.2c1.6 3 4.5 3.7 7.7 2l5.7-3c3.2-1.7 4.3-4.5 2.7-7.5s-4.5-3.7-7.7-2l-5.7 3c-3.2 1.7-4.3 4.5-2.7 7.5"/><path d="m194.8 86.7-1.9-9.7-2.4.5.7 3.6-14.8 2.8.5 2.5 14.8-2.8.7 3.6zm-4.8-19.5-6.4 2.4c-1.4.6-3.8 1.6-5.4 2.4.8-.8 2.1-2 3-2.9l6.9-6.9-.9-2.4-16.4 6.2.9 2.3 6.3-2.4c1.5-.6 4-1.6 5.5-2.4-.9.8-2.3 2.2-3.4 3.1l-6.6 6.7.9 2.4 16.4-6.2-.9-2.3zm-20.2-14.6 4.6-1.6c1.1-.4 2.7-1.1 3.5-1.4-.7.7-2 1.8-2.8 2.6l-3.4 3.4zm-2.4 7.3 1.4 2.2 12.5-13-1.4-2.3-17.2 5.5 1.4 2.2 3.4-1.2 2.4 3.9-2.6 2.6h.1zm6.9-20.8-6.5-7.4-1.8 1.6 2.4 2.7-11.3 10 1.7 1.9 11.3-10 2.4 2.7 1.8-1.6zm-26.5-1.2c2.5 2.1 5.4 1.5 7-.6 3.4-4.2-2.3-8.8-.2-11.5.8-1 1.9-1.1 3-.2 1.1.8 1.2 2 .2 3.4l2 1.6c1.8-2.4 1.6-5-.7-6.9-2.3-1.8-4.9-1.5-6.5.4-3.3 4 2.3 8.8.1 11.5-.9 1.1-2.1 1.4-3.5.3-1.2-1-1.4-2.3-.3-3.7l-2-1.6c-2 2.5-1.6 5.3.8 7.2m-2-22.5-3.2 6c-.7 1.4-1.8 3.8-2.4 5.4.1-1.1.3-2.9.4-4.1l.6-9.8-2.2-1.2-8.2 15.5 2.2 1.2 3.1-6c.8-1.5 1.9-3.8 2.5-5.5-.1 1.2-.4 3.1-.5 4.5l-.6 9.4 2.2 1.2 8.2-15.5-2.2-1.2zm-17.4-7.5-5.8 16.5 2.4.8 5.8-16.5s-2.4-.8-2.4-.8zm-20.7-4-.4 6.8v5.9c-.4-1-.9-2.7-1.4-3.9l-3.5-9.2-2.5-.2-1.1 17.5 2.5.2.4-6.7c0-1.6 0-4.3 0-6 .4 1.1 1 3 1.4 4.3l3.3 8.8 2.5.2 1.1-17.5-2.5-.2zm-19.8 18.4c3.1-.4 4.8-2.7 4.3-6.3l-1.7-12-2.6.4 1.7 12c.3 2.2-.5 3.3-2.1 3.5s-2.7-.7-3-2.8l-1.7-12-2.6.4 1.7 12c.5 3.6 2.8 5.3 5.9 4.9m-24 4.8-2.3-4.8 5.1-2.4-1-2.1-5.1 2.4-2.1-4.6 5.5-2.6-1-2.2-7.8 3.6 7.4 15.9 8-3.7-1-2.2s-5.7 2.7-5.7 2.7zm-20.4-2.3 1.6-1.1c1.4-1 2.8-.7 4 1s1.1 3.2-.4 4.2l-1.6 1.1zm12.8 9.5 2.3-1.6-6.9-3.3c1.2-1.7 1.1-3.9-.4-6.2-2-2.9-4.7-3.4-7.4-1.5l-3.7 2.6 10 14.4 2.1-1.4-3.6-5.2 1.3-.9 6.5 3.2h-.2zm-15.5 10.5c-1.2 1.3-2.8 1.2-4.4-.3l-4.7-4.4c-1.6-1.5-1.9-3-.6-4.3 1.2-1.3 2.8-1.2 4.4.3l4.7 4.4c1.6 1.5 1.8 3 .6 4.3m1.8 1.7c2.3-2.5 2-5.4-.7-7.9l-4.7-4.4c-2.7-2.5-5.7-2.5-7.9 0-2.3 2.5-2 5.4.7 7.9l4.7 4.4c2.7 2.5 5.7 2.5 7.9 0m-9.1 11.9c1.7-2.7 1.1-5.3-1.7-7.3l-1.3 2.1c1.6 1.2 1.9 2.5 1 3.9-.8 1.3-2.2 1.6-3.9.5l-6.1-3.8c-1.8-1.1-2.1-2.5-1.3-3.7.9-1.4 2.1-1.7 4-.7l1.3-2.1c-3-1.7-5.6-1.1-7.3 1.6-1.6 2.6-1 5.3 2 7.2l6.1 3.8c3 1.9 5.7 1.2 7.3-1.4m-22.6 5.2 6.4 2.4c1.4.6 4 1.3 5.6 1.8-1.1 0-2.9 0-4.2.2l-9.8.6-.9 2.4 16.4 6.2.9-2.3-6.3-2.4c-1.5-.6-4-1.4-5.7-1.9h4.6l9.4-.6.9-2.4-16.4-6.2-.9 2.3zm9 24.5-5.3-.9.9-5.5-2.3-.4-.9 5.5-5-.8 1-6-2.3-.4-1.4 8.5 17.3 2.9 1.4-8.7-2.3-.4-1 6.2z"/></g></svg>