<svg fill="none" height="53" viewBox="0 0 53 53" width="53" xmlns="http://www.w3.org/2000/svg"><g fill="#080f18"><path d="m37.6398 17.64c-.27-.7-.59-1.19-1.11-1.71s-1.02-.85-1.71-1.11c-.53-.2-1.32-.45-2.77-.51-1.57-.07-2.04-.09-6.02-.09s-4.45.01-6.02.09c-1.45.07-2.24.31-2.77.51-.7.27-1.19.59-1.71 1.11s-.84 1.02-1.11 1.71c-.2.53-.45 1.31-.51 2.77-.07 1.57-.09 2.04-.09 6.02s.01 4.45.09 6.02c.07 1.45.31 2.24.51 2.77.27.7.59 1.19 1.11 1.71s1.02.84 1.71 1.11c.52.21 1.31.45 2.77.51 1.57.07 2.04.09 6.02.09s4.45-.01 6.02-.09c1.45-.07 2.24-.31 2.77-.51.69-.27 1.19-.59 1.71-1.11s.84-1.02 1.11-1.71c.2-.53.45-1.31.51-2.77.07-1.57.09-2.04.09-6.02s-.02-4.45-.09-6.02c-.07-1.45-.31-2.24-.51-2.77zm-11.62 16.44c-4.23 0-7.65-3.43-7.65-7.65s3.43-7.65 7.65-7.65 7.65 3.43 7.65 7.65-3.43 7.65-7.65 7.65zm7.96-13.82c-.99 0-1.79-.8-1.79-1.79s.8-1.79 1.79-1.79 1.79.8 1.79 1.79-.8 1.79-1.79 1.79z"/><path d="m26.0198 21.46c-2.74 0-4.97 2.22-4.97 4.97s2.22 4.97 4.97 4.97 4.97-2.22 4.97-4.97-2.22-4.97-4.97-4.97z"/><path d="m26.42 0c-14.59 0-26.42 11.83-26.42 26.43s11.83 26.42 26.42 26.42 26.42-11.83 26.42-26.42-11.83-26.43-26.42-26.43zm14.41 32.57c-.07 1.59-.32 2.67-.69 3.62-.38.98-.89 1.81-1.72 2.64s-1.66 1.34-2.64 1.72c-.95.37-2.03.62-3.62.69s-2.1.09-6.14.09-4.55-.02-6.14-.09-2.67-.33-3.62-.69c-.98-.38-1.81-.89-2.64-1.72s-1.34-1.66-1.72-2.64c-.37-.95-.62-2.03-.69-3.62s-.09-2.1-.09-6.14.02-4.56.09-6.14c.07-1.59.32-2.67.69-3.62.38-.98.89-1.81 1.72-2.64s1.66-1.34 2.64-1.72c.95-.37 2.03-.62 3.62-.69s2.1-.09 6.14-.09 4.55.02 6.14.09 2.67.32 3.62.69c.98.38 1.81.89 2.64 1.72s1.34 1.66 1.72 2.64c.37.95.62 2.03.69 3.62s.09 2.1.09 6.14-.02 4.55-.09 6.14z"/></g></svg>