<svg fill="none" height="83" viewBox="0 0 110 83" width="110" xmlns="http://www.w3.org/2000/svg"><g fill="#1d1d1b"><path d="m47.4801 68.72c.86-5.99.86-17.73.86-28.25s0-21.03-.86-26.78c-.98-6.73-3.42-11.5-6.6-12.47l.24-1.22c7.46.12 24.7 0 34.48 0 22.99 0 32.5299 6.73 32.5299 21.4 0 9.91-6.73 16.02-15.8999 17.97 10.0299 2.2 17.3599 8.93 17.3599 18.71 0 15.65-11.1299 24.33-35.9499 24.33-12.96 0-22.01-.24-32.53 0l-.24-1.22c3.18-.98 5.63-5.75 6.6-12.47m18.6-35.09h9.29c8.56 0 13.7-2.94 13.7-9.91s-4.89-9.9-13.33-9.9h-9.78c-.24 6.24-.24 14.18.12 19.81zm.12 34.97h9.17c9.42 0 14.55-3.67 14.55-11 0-6.85-5.01-10.52-14.31-10.52h-9.54c-.12 6.73 0 14.06.12 21.52"/><path d="m3.19 28.14c1.79-4.58 7.86-22.48998 7.86-25.22998 0-1-.4-1.64-1.29-2.140001l.1-.499999h14.73v.499999c-.9.550001-1.24 1.140001-1.24 2.090001 0 2.69 6.52 22.03998 8.01 25.87998.95 2.39 1.64 3.98 2.89 4.58l-.05.5h-12.39l-.05-.5c.85-.35 1.64-1.04 1.64-2.79 0-1.44-.65-3.73-1.24-5.37h-10.6c-.65 1.94-1.19 3.83-1.19 5.42 0 1.49.55 2.44 1.69 2.74l-.05.5h-12.01v-.5c1.44-.7 2.14-2.49 3.18-5.17m17.82-8.67c-1.29-4.53-2.49-8.51-3.93-12.83998-1.34 4.12998-2.59 8.00998-3.98 12.83998z"/><path d="m19.8501 44.8601c0 1.51-1.23 2.74-2.74 2.74s-2.74-1.23-2.74-2.74 1.23-2.74 2.74-2.74 2.74 1.23 2.74 2.74z"/></g></svg>