<svg fill="none" height="307" viewBox="0 0 468 307" width="468" xmlns="http://www.w3.org/2000/svg"><g fill="#1d1d1b"><path d="m191.26 157.584c2.47-2.79 4.23-5.87 4.62-9.45.33-3.06-.44-5.57-2.76-7.29-1.97-1.46-4.36-1.89-6.88-1.99-3.5-.14-7.02.56-10.53 1.52-6.65 1.82-13 4.66-19.1 8.32-5.22 3.14-10.17 6.68-14.46 11.19-2.15 2.26-4 4.69-5.13 7.56-.55 1.39-.73 2.79-.49 4.15.44 2.49 2.21 3.76 4.81 3.44 2.4-.29 4.72-1.09 6.97-2.23 4.44-2.24 8.25-5.43 11.75-9.04 4.59-4.74 8.42-10.02 11.86-15.58.23-.38.46-.57.89-.62 1.13-.14 2.27-.33 3.4-.5 1.81-.27 3.62-.54 5.48-.82-.02.12-.02.17-.03.22-.23.5-.46 1.01-.71 1.51-2.13 4.29-4.61 8.42-7.11 12.54-3.83 6.32-7.82 12.56-11.27 19.07-1.47 2.77-2.85 5.58-3.77 8.53-.51 1.65-.86 3.29-.69 4.94.2 1.93 1.3 3.05 3.19 3.05.66 0 1.36-.13 2.02-.32 2.04-.58 3.91-1.65 5.67-2.95 4.29-3.15 7.78-6.96 9.97-11.82.93-2.05 1.45-4.16 1.21-6.28-.18-1.59-.97-2.68-2.5-3.11-1.05-.3-2.16-.23-3.28 0-.87.17-1.73.42-2.64.65.65-1.1 1.26-2.16 1.92-3.2.15-.24.43-.47.7-.59 2.13-.99 4.3-1.85 6.39-2.93 3.91-2.03 7.49-4.59 10.5-7.98z"/><path d="m142.85 103.114c-.51 1.56-.98 3.02-1.5 4.84h2.98c-.49-1.7-.94-3.21-1.48-4.84z"/><path d="m463.05 145.404-224.63-144.26025c-2.71-1.519997-6.02-1.529997-8.73 0l-225.13 144.26025c-6.08 3.41-6.08 12.15 0 15.56l225.13 144.26c2.71 1.52 6.02 1.52 8.73 0l224.64-144.26c6.06-3.41 6.06-12.14 0-15.55zm-227.84-4.13-2.48 5.52c-1.35.2-18.35 2.72-19.72 2.93.07-.2.1-.32.16-.44.73-1.56 1.46-3.12 2.18-4.68.14-.31.3-.44.62-.48 1.19-.16 18.06-2.68 19.25-2.84zm-27.95-38.46c-.15-1.03-.53-1.76-1.02-1.91l.04-.19c1.56.04 3.28.04 4.84.04 2.05 0 2.72 0 4.95-.08l-.07 4.24h-.19c-.73-1.33-1.46-2.04-4.09-2.04-.51 0-1.11.02-1.6.05-.02.45-.03 2.31-.03 2.82.32.02.71.04 1.05.04 1.01 0 1.71-.23 2.23-.89h.18c-.02.66-.02 3.23 0 3.91h-.18c-.58-.77-1.16-.92-2.25-.92-.35 0-.69.02-1.01.03-.04 1.03-.02 2.35.02 3.27.53.02 1.09.02 1.62.02 2.48 0 3.47-.71 4.24-2.06h.18l-.07 4.26c-2.14-.05-2.93-.07-4.82-.07-1.65 0-3.3 0-4.99.04l-.04-.19c.49-.15.86-.88 1.02-1.91.13-.92.13-2.72.13-4.33s0-3.23-.13-4.11zm-8.59-2.29c1.69 0 2.82.72 3.38.72.36 0 .64-.23.86-.58h.19l-.08 4.54h-.17c-1.22-1.74-2.53-2.33-4.03-2.33-1.63 0-2.66 1.28-2.66 4.18s1.03 4.14 2.66 4.14c1.54 0 2.83-.5 4.03-2.33h.17l.08 4.56h-.19c-.26-.36-.53-.6-.96-.6-.62 0-1.5.71-3.23.71-3.85 0-5.59-2.55-5.59-6.43s1.8-6.59 5.53-6.59zm-19.9 2.29c-.15-1.03-.53-1.76-1.02-1.91l.04-.19h4.65l.04.19c-.43.28-.58.53-.58.86 0 .62.36 1.14 2.18 3.3.79.94 1.73 1.95 2.8 3.09v-1.84c0-1.71-.03-2.8-.13-3.47-.15-1.09-.55-1.8-1.03-1.93l.04-.21h4.58l.04.19c-.49.15-.86.88-1.01 1.91-.13.88-.13 2.55-.13 4.11s0 3.41.13 4.33c.15 1.03.53 1.76 1.01 1.91l-.04.19h-4.65l-.04-.19c.43-.3.6-.54.6-.88 0-.54-.28-1.14-1.71-2.89-1.07-1.32-2.08-2.46-3.28-3.68v2.16c0 1.33.02 2.55.13 3.34.15 1.09.54 1.8 1.03 1.93l-.03.21h-4.58l-.04-.19c.49-.15.86-.88 1.02-1.91.13-.92.13-2.72.13-4.33s0-3.23-.13-4.11zm-12.78 0c-.15-1.03-.53-1.76-1.02-1.91l.04-.19c1.56.04 3.28.04 4.84.04 2.05 0 2.72 0 4.95-.08l-.07 4.24h-.19c-.73-1.33-1.46-2.04-4.09-2.04-.51 0-1.11.02-1.6.05-.02.45-.03 2.31-.03 2.82.32.02.71.04 1.05.04 1.01 0 1.71-.23 2.23-.89h.18c-.02.66-.02 3.23 0 3.91h-.18c-.58-.77-1.16-.92-2.25-.92-.35 0-.69.02-1.01.03-.04 1.03-.02 2.35.02 3.27.53.02 1.09.02 1.62.02 2.48 0 3.47-.71 4.24-2.06h.18l-.07 4.26c-2.14-.05-2.93-.07-4.82-.07-1.65 0-3.3 0-4.99.04l-.04-.19c.49-.15.86-.88 1.02-1.91.13-.92.13-2.72.13-4.33s0-3.23-.13-4.11zm-9.08-2.29c1.69 0 2.81.71 3.38.71.36 0 .63-.22.86-.58h.18l-.07 4.54h-.17c-1.22-1.75-2.53-2.33-4.03-2.33-2.03 0-3.04 1.18-3.04 4.37 0 2.93.92 4 2.74 4 .64 0 1.09-.02 1.88-.25.03-.36.03-.71.03-1.07 0-1.74-.02-2.46-.99-2.76l.04-.18h4.45l.04.18c-.79.27-.87 1.9-.87 3.28 0 .79.02 1.8.11 2.97l-.18.02c-.25-.34-.68-.58-1.13-.58-.77 0-1.78.7-3.64.7-3.94 0-5.5-2.1-5.5-6.25s1.78-6.77 5.91-6.77zm-20.49 12.64c.54-.26.81-.94 1.2-1.95.67-1.73 2.96-8.48 2.96-9.51 0-.37-.15-.62-.49-.81l.04-.19h5.56v.19c-.34.21-.47.43-.47.79 0 1.01 2.46 8.31 3.02 9.76.36.9.62 1.5 1.09 1.73l-.02.19h-4.67l-.02-.19c.32-.13.62-.39.62-1.05 0-.54-.24-1.41-.47-2.03h-4c-.24.73-.45 1.44-.45 2.05 0 .56.21.92.64 1.03l-.02.19h-4.52v-.19zm51.06 71.71c-2.71 4.54-6.4 8.15-10.7 11.14-3.55 2.48-7.32 4.36-11.35 5.47-2.88.8-5.75 1.19-8.53.63-3.95-.8-6.22-3.25-6.81-7.3-.5-3.38.2-6.8 1.26-10.23 1.26-4.07 3.06-7.97 5-11.83.11-.22.22-.44.26-.7-.5.46-1 .92-1.51 1.38-4.35 3.94-9.18 6.85-14.6 8.38-3.62 1.02-7.23 1.5-10.74.77-3.9-.82-6.35-3.76-6.63-7.85-.28-4.02.92-7.82 3.12-11.49 2.06-3.45 4.72-6.42 7.68-9.13 4.67-4.28 9.83-7.75 15.28-10.72 6.29-3.43 12.78-6.12 19.47-8.12 4.87-1.46 9.76-2.6 14.68-3.27 4.59-.62 9.12-.77 13.47.18 2.8.61 5.37 1.65 7.41 3.56 3.53 3.32 4.3 7.63 2.62 12.77-1.08 3.31-3.02 6.19-5.43 8.8-4.11 4.47-9.02 7.63-14.36 10.08-.16.08-.32.15-.59.27.27.12.45.2.63.29 2.3 1.07 3.42 3.01 3.53 5.64.17 3.93-1.01 7.7-3.16 11.31zm155.87-26.94c-2.71 4.52-6.12 8.41-10.52 11.37-3.42 2.3-7.05 3.69-10.93 3.83-1.16.04-2.26-.13-3.24-.61-1.65-.82-2.33-2.32-2.44-4.19-.1-1.9.32-3.81 1.09-5.65 1.02-2.43 2.21-4.82 3.31-7.23.69-1.51 1.38-3.03 2.04-4.56.15-.34.21-.71.28-1.07.28-1.43-.54-2.08-1.93-1.53-1.37.54-2.57 1.43-3.7 2.4-3.57 3.04-6.26 6.74-8.54 10.77-1.82 3.22-2.99 6.62-4.15 10.02-.37 1.09-.76 2.17-1.14 3.25-3.82.57-7.61 1.14-11.46 1.71 1.35-3.01 2.68-5.98 4.05-9.04-.66.04-1.26.09-1.85.1-.92.01-1.85.03-2.76-.02-.43-.03-.65.09-.92.48-3.29 4.92-7.69 8.41-12.92 10.8-2.28 1.04-4.62 1.75-7.02 2.01-2.8.3-5.46.05-7.74-1.36-1.92-1.18-3.18-2.91-3.81-5.15-.04-.14-.09-.28-.13-.42-.01-.03-.04-.04-.15-.15-.7.84-1.38 1.69-2.11 2.5-2.41 2.68-5.09 5.03-8.21 6.75-3.05 1.68-6.17 2.49-9.32 1.83-2.65-.55-4.04-2.34-4.44-5.02-.04-.25-.07-.51-.12-.83-.21.16-.36.28-.51.41-4.65 3.92-9.73 6.91-15.32 8.75-4.02 1.32-8.06 2.1-12.02 1.45-4.06-.67-6.96-2.74-8.08-6.82-.76-2.77-.59-5.65.41-8.6 1.42-4.19 3.92-7.76 7.17-10.87 5.37-5.14 11.52-8.11 18.42-8.9 2.15-.25 4.25-.21 6.16.56 3.32 1.33 4.62 4.38 3.51 8.18-.65 2.22-1.85 4.19-3.44 5.95-3.01 3.32-6.43 6.02-10.52 7.65-3.65 1.45-7.25 1.85-10.79 1.12-.08-.02-.16-.03-.24-.04-.03 0-.07 0-.14.01-.17 3.47 1.6 6.05 5.25 6.25 2.55.14 5.06-.57 7.53-1.58 4.94-2.01 9.27-5.11 13.17-8.95.14-.13.27-.32.32-.49 1.09-3.72 2.77-7.28 4.44-10.83 1.6-3.41 6.81-13.97 8.46-17.37.05-.09.09-.19.16-.35-1.35.2-6.12.91-7.49 1.11.07-.2.1-.32.16-.44.73-1.56 1.46-3.12 2.17-4.68.14-.31.31-.44.62-.48 1.19-.16 5.83-.87 7.02-1.03.29-.04.45-.16.59-.44 1.32-2.58 5.32-11.1 6.65-13.67.13-.25.25-.43.57-.48 3.34-.48 6.68-.99 10.02-1.49.08-.01.16 0 .3-.02-1.38 2.82-5.41 11.52-6.82 14.39 1.49-.23 74.86-11.14 76.36-11.36-.1.26-.16.42-.23.57-.67 1.51-1.36 3.01-2.01 4.52-.15.33-.33.45-.66.49-1.27.17-74.51 11.08-75.78 11.26-.27.04-.42.12-.55.4-3.14 6.67-9.84 20.51-12.96 27.19-.62 1.33-1.04 2.72-1.17 4.15-.15 1.78.72 2.94 2.21 2.9.89-.02 1.75-.29 2.59-.74 2.29-1.23 4.26-2.92 6.09-4.8.28-.29.56-.58.83-.88.88-.98 1.6-1.93 1.8-3.31.41-2.82 1.72-5.45 3.4-7.9 3.93-5.74 9.17-9.65 15.39-12.16 4.08-1.65 8.23-2.46 12.41-2.71.32-.02.64-.03.96-.05.05 0 .09.02.2.05-.23.89-.45 1.79-.68 2.68-.33 1.29-.33 1.26-1.64 1.49-7.71 1.35-13.47 5.72-17.26 12.97-1.22 2.33-1.78 4.75-1.31 7.19.63 3.27 3.2 4.68 6.73 3.74 3.72-1 6.92-4.04 8.54-6.52-.43-.49-.8-.98-1.24-1.4-2.26-2.2-2.68-6.25-.94-9.22 1.83-3.1 5.96-4.63 8.64-3.17 1.47.8 2.07 2.2 2.15 3.91.1 2.27-.36 4.53-1.15 6.78-.06.17-.12.33-.21.62.85 0 1.65.02 2.46-.01.67-.02 1.35-.13 2.03-.16.38-.02.56-.18.72-.55 2.95-6.66 5.94-13.31 8.87-19.98.39-.89.82-1.22 1.72-1.33 2.73-.34 5.46-.79 8.18-1.2.18-.03.36-.05.63-.09-1.76 3.57-3.49 7.06-5.22 10.55.02.01.04.03.06.05.14-.17.28-.33.41-.5 2.49-3.19 5.27-6.06 8.64-8.29 2.46-1.63 5.06-2.78 7.87-2.95 1.82-.1 3.45.23 4.53 1.66.88 1.17.95 2.62.69 4.15-.41 2.43-1.35 4.77-2.34 7.09-1.09 2.55-2.28 5.07-3.33 7.62-.44 1.08-.67 2.22-.91 3.34-.09.45 0 .95.14 1.37.28.93 1.18 1.38 2.3 1.09.76-.2 1.55-.48 2.25-.88 2.65-1.5 4.68-3.71 6.48-6.15.52-.7.96-1.45 1.46-2.17.1-.14.28-.34.42-.35 1.2-.11 2.39-.19 3.69-.29-.42.73-.77 1.39-1.16 2.03z"/><path d="m210.28 173.584c5.37-.3 9.94-2.69 13.69-7.1 1.2-1.41 2.12-3 2.54-4.77.53-2.25-.6-3.34-2.83-2.78-1.33.33-2.57.97-3.76 1.73-2.6 1.67-4.83 3.78-6.7 6.27-1.52 2.02-2.74 4.18-3.46 6.59.09.03.13.06.18.06h.35z"/></g></svg>