<svg fill="none" height="209" viewBox="0 0 967 209" width="967" xmlns="http://www.w3.org/2000/svg"><g fill="#ffcb00"><path d="m307.104.0100098c-2.76 4.2800002-5.95 8.4000002-9.47 12.3699902-13.12 14.79-28.78 25.98-45.84 34.84-9.12 4.73-18.61 8.5-27.9 12.8-1.14.53-2.37 1.54-3.04 2.6-2.86 4.55-5.53 9.2-8.38 13.99 4-1 7.75-2.08 11.52-2.84 4.9-.99 9.75-1.27 14.34.02 6.69 1.88 10.12 6.65 10.92 13.59 1.07 9.25-1.24 18.43-5.29 27.4-9.56 21.2-24.81 37.86-43.55 51.61-7.71 5.66-15.85 10.34-24.78 12.86-2.9.82-5.95 1.38-8.83 1.38-8.26 0-13.06-4.89-13.92-13.33-.74-7.2.78-14.38 3.02-21.57 4.02-12.89 10.03-25.14 16.46-37.25 15.08-28.41 32.5-55.65 49.23-83.24 5.08-8.38 10.15-16.76999 15.05-25.2299902h-42.51c-9.95 13.8199902-20.74 27.0399902-32.72 39.4099902-15.3 15.79-31.92 29.7-51.31 39.49-9.82 4.96-19.9699 8.43-30.4299 9.71-11.34 1.39-19.08-4.18-20.99-15.04-1.05-5.97-.23-12.06 2.15-18.13 4.9-12.54 13.01-23.16 22.39-33.01 7.75-8.14 16-15.54999 24.6199-22.4299902h-63.5299c-11.71 11.0799902-22.24 23.1699902-30.52 37.0499902-9.57999 16.04-14.83999 32.61-13.619986 50.18 1.239996 17.85 11.919986 30.69 28.939986 34.27 15.31 3.22 31.07 1.11 46.87-3.33 23.68-6.65 44.7699-19.39 63.7699-36.57 2.2-1.99 4.39-4.01 6.58-6.01-.2 1.16-.67 2.12-1.15 3.07-8.44 16.87-16.33 33.92-21.81 51.68-4.61 14.94-7.66 29.89-5.48 44.65 2.6 17.65 12.49 28.38 29.75 31.86 12.15 2.45 24.68.75 37.26-2.74 17.57-4.87 34.04-13.07 49.55-23.88 18.77-13.09 34.88-28.82 46.7-48.65 9.38-15.75 14.52-32.2 13.79-49.37-.49-11.45-5.38-19.93-15.41-24.6-.79-.37-1.6-.72-2.77-1.25 1.18-.53 1.88-.85 2.59-1.17 23.3-10.68 44.75-24.49 62.71-44.01 3.31-3.58999 6.41-7.30999 9.26-11.1599902h-44.21z"/><path d="m948.834 7.85c-2.16 3.14-4.11 6.42-6.37 9.48-7.87 10.66-16.74 20.32-28.3 26.86-3.08 1.74-6.5 2.98-9.83 3.85-4.86 1.28-8.81-.7-10.03-4.77-.56-1.86-1-4.03-.59-6.01 1.01-4.89 2.03-9.89 3.95-14.58 3.12-7.61 6.53-15.14 9.89-22.68h-43.71c-.47 1.03-.93 2.05-1.4 3.08-4.82 10.52-10.01 20.93-14.47 31.56-3.36 8.02-5.22 16.34-4.76 24.65.45 8.2 3.43 14.75 10.64 18.31 4.29 2.12 9.09 2.85 14.16 2.67 16.94-.59 32.81-6.68 47.74-16.72 19.19-12.9 34.1-29.88 45.93-49.63 1.69-2.82 3.25-5.7 5.06-8.88-5.65.42-10.88.77-16.11 1.27-.59.06-1.37.9-1.81 1.53z"/><path d="m779.944.0100098c-5.46 12.2599902-10.93 24.5199902-16.36 36.7799902-.71 1.6-1.49 2.33-3.16 2.41-2.94.14-5.91.59-8.85.71-3.54.13-7.05.05-10.75.06.43-1.24.67-1.97.93-2.69 3.49-9.82 5.51-19.7 5.04-29.59999-.13-2.76-.57-5.33-1.4-7.6600002h-42.51c-1.18 1.3900002-2.26 2.8800002-3.19 4.4600002-7.62 12.93999-5.79 30.60999 4.09 40.23999 1.9 1.85 3.53 3.99 5.41 6.14-7.11 10.82-21.05 24.1-37.3 28.45-15.42 4.13-26.61-2.02-29.37-16.31-2.06-10.64.39-21.22 5.72-31.39 6.55-12.5 14.44-23.03999 23.65-31.5799902h-46.37c-6.62 6.4500002-12.71 13.6499902-18.2 21.6699902-7.35 10.73-13.08 22.18-14.86 34.51-.87 5.99-4.02 10.18-7.85 14.44-1.17 1.3-2.4 2.56-3.62 3.82-7.98 8.23-16.56 15.6-26.56 20.97-3.65 1.96-7.42 3.14-11.31 3.24-6.53.17-10.32-4.91-9.65-12.67.53-6.21 2.37-12.29 5.09-18.11 7.69-16.43 20.33-42.79 32.36-67.8899902h-45.32c-6.51 13.3099902-12.63 25.8999902-15.71 32.4499902-7.29 15.52-14.64 31.05-19.4 47.31-.22.75-.78 1.55-1.37 2.13-17.01 16.76-35.91 30.29-57.48 39.08-10.82 4.41-21.77 7.51-32.9 6.9-15.93-.88-23.66-12.15-22.92-27.3.32-.03.47-.07.61-.05.36.04.71.11 1.05.18 15.49 3.21 31.22 1.46 47.14-4.87 17.85-7.1 32.79-18.9 45.94-33.39 6.94-7.65 12.17-16.26 15.02-25.97 4.87-16.57-.79-29.90999-15.31-35.70999-.69-.27-1.38-.52-2.08-.7500002h-35.69c-25.74 5.0800002-48.98 17.4699902-69.55 37.1699902-14.18 13.57-25.08 29.17-31.28 47.45-4.38 12.91-5.1 25.49-1.79 37.57 4.87 17.8 17.57 26.83 35.27 29.76 17.3 2.86 34.91-.55 52.48-6.32 24.38-8 46.56-21.05 66.87-38.19.65-.55 1.33-1.06 2.23-1.78.19 1.37.33 2.49.5 3.61 1.75 11.7 7.84 19.51 19.39 21.91 13.75 2.86 27.41-.66 40.7-8 13.63-7.52 25.32-17.76 35.86-29.46 3.18-3.53 6.14-7.25 9.22-10.91.47.47.61.54.66.66.21.6.41 1.2.58 1.82 2.75 9.78 8.25 17.32 16.65 22.49 9.98 6.14 21.56 7.22 33.81 5.92 10.43-1.1 20.67-4.23 30.63-8.76 22.83-10.4 42.04-25.65 56.41-47.14 1.15-1.72 2.13-2.23 4-2.11 3.97.24 8.01.16 12.03.1 2.59-.04 5.2-.28 8.08-.44-5.97 13.34-11.78 26.3-17.67 39.46 16.82-2.52 33.37-5 50.03-7.49 1.65-4.73 3.35-9.46 4.97-14.21 5.08-14.87 10.18-29.7 18.14-43.76 5.88-10.38 12.39-20.24999 19.94-29.3499902h-50.71zm-386.5 53.2099902c8.18-10.86 17.9-20.07 29.27-27.38 5.19-3.33 10.58-6.1 16.41-7.56 9.74-2.44 14.67 2.32 12.37 12.15-1.81 7.73-5.84 14.66-11.08 20.84-16.36 19.26-36.31 29.7-59.75 31.02-.52.03-1.03.02-1.53-.01-.2-.01-.38-.13-.78-.28 3.13-10.51 8.44-19.96 15.09-28.78z"/></g></svg>