<svg fill="none" height="80" viewBox="0 0 180 80" width="180" xmlns="http://www.w3.org/2000/svg" xmlns:xlink="http://www.w3.org/1999/xlink"><clipPath id="a"><path d="m0 0h180v79.77h-180z"/></clipPath><g clip-path="url(#a)" fill="#ffcb00"><path d="m70.44 56.3101c.07.03.11.05.15.05h.29c4.36-.25 8.08-2.19 11.12-5.78.98-1.15 1.73-2.44 2.06-3.88.43-1.83-.49-2.72-2.3-2.26-1.09.27-2.09.79-3.05 1.41-2.12 1.36-3.93 3.08-5.45 5.1-1.24 1.64-2.23 3.4-2.81 5.36m18.68-21.73c-1.1.16-14.92 2.21-16.04 2.38.06-.16.08-.26.13-.36.59-1.27 1.19-2.54 1.77-3.81.11-.25.25-.35.5-.39.96-.13 14.69-2.18 15.65-2.31zm-19.16 25.19c-.14 2.82 1.3 4.92 4.27 5.08 2.07.12 4.11-.46 6.13-1.28 4.02-1.64 7.54-4.16 10.7-7.28.11-.11.22-.26.26-.4.88-3.03 2.25-5.92 3.61-8.81 1.3-2.77 5.54-11.36 6.88-14.12.04-.08.07-.16.13-.29-1.1.16-4.97.74-6.09.9.06-.16.08-.26.13-.36.59-1.27 1.19-2.54 1.77-3.81.11-.25.25-.35.5-.39.96-.13 4.74-.7 5.7-.84.24-.03.37-.13.48-.36 1.07-2.1 4.32-9.02 5.4-11.12.11-.2.2-.35.46-.39 2.71-.39 5.43-.8 8.14-1.21.06-.01.13 0 .24-.01-1.13 2.29-4.4 9.37-5.55 11.7 1.22-.18 60.86-9.05 62.08-9.24-.08.21-.13.34-.18.46-.55 1.22-1.1 2.44-1.63 3.67-.12.27-.27.36-.54.4-1.03.14-60.57 9.01-61.6 9.15-.22.03-.34.1-.45.32-2.56 5.42-8 16.68-10.54 22.11-.51 1.08-.85 2.21-.95 3.37-.12 1.44.58 2.39 1.8 2.36.72-.02 1.42-.24 2.11-.6 1.86-1 3.46-2.37 4.94-3.91.23-.23.46-.47.67-.71.71-.79 1.3-1.57 1.46-2.69.33-2.3 1.4-4.43 2.77-6.43 3.19-4.66 7.46-7.85 12.51-9.89 3.32-1.34 6.69-2 10.09-2.2.26-.02.52-.03.78-.04.04 0 .07.02.16.04-.18.73-.37 1.45-.55 2.18-.27 1.05-.27 1.03-1.33 1.21-6.27 1.1-10.95 4.65-14.03 10.55-.99 1.89-1.45 3.86-1.06 5.84.51 2.66 2.6 3.81 5.47 3.04 3.03-.81 5.62-3.28 6.95-5.3-.35-.4-.65-.8-1.01-1.14-1.84-1.79-2.18-5.08-.76-7.49 1.49-2.53 4.85-3.76 7.02-2.58 1.2.65 1.68 1.79 1.75 3.18.09 1.84-.29 3.68-.94 5.51-.05.13-.09.27-.17.5.69 0 1.34.01 2-.01.55-.02 1.1-.11 1.65-.13.31-.01.46-.15.59-.45 2.4-5.42 4.83-10.82 7.21-16.24.32-.72.67-.99 1.4-1.08 2.22-.28 4.44-.64 6.65-.98.15-.02.29-.04.51-.08-1.43 2.9-2.84 5.74-4.24 8.57.02.01.03.03.05.04.11-.14.22-.27.33-.41 2.02-2.59 4.29-4.92 7.02-6.74 2-1.33 4.11-2.26 6.4-2.4 1.48-.08 2.81.19 3.68 1.35.72.95.78 2.13.57 3.37-.34 1.98-1.1 3.88-1.9 5.77-.88 2.07-1.85 4.12-2.71 6.2-.36.87-.55 1.81-.74 2.71-.08.37 0 .77.11 1.12.23.76.96 1.13 1.87.89.62-.16 1.26-.39 1.83-.72 2.15-1.22 3.81-3.02 5.27-5 .42-.57.78-1.18 1.19-1.77.08-.12.23-.27.34-.29.97-.09 1.95-.16 3-.24-.34.59-.63 1.13-.94 1.65-2.2 3.68-4.98 6.84-8.55 9.24-2.78 1.87-5.73 3-8.89 3.11-.94.03-1.84-.1-2.64-.5-1.34-.66-1.9-1.88-1.98-3.41-.08-1.55.26-3.1.89-4.59.83-1.98 1.8-3.92 2.69-5.88.56-1.23 1.12-2.47 1.66-3.7.12-.28.17-.58.23-.87.22-1.16-.44-1.69-1.57-1.24-1.11.44-2.09 1.16-3.01 1.95-2.9 2.47-5.09 5.48-6.94 8.75-1.48 2.62-2.43 5.38-3.38 8.15-.3.88-.62 1.77-.93 2.65-3.1.47-6.18.93-9.32 1.4 1.1-2.45 2.18-4.86 3.29-7.35-.54.03-1.02.08-1.5.08-.75.01-1.5.03-2.24-.02-.35-.02-.53.07-.74.39-2.68 4-6.25 6.84-10.5 8.78-1.85.84-3.76 1.43-5.7 1.63-2.28.24-4.44.04-6.3-1.1-1.56-.96-2.59-2.37-3.1-4.19-.03-.12-.07-.23-.11-.34 0-.02-.03-.04-.12-.12-.57.68-1.13 1.37-1.72 2.03-1.96 2.18-4.14 4.09-6.68 5.49-2.47 1.37-5.02 2.02-7.58 1.49-2.15-.45-3.29-1.9-3.61-4.08-.03-.21-.06-.42-.09-.67-.17.13-.29.23-.42.33-3.78 3.19-7.91 5.62-12.45 7.11-3.27 1.07-6.55 1.71-9.77 1.18-3.3-.55-5.66-2.23-6.57-5.54-.61-2.25-.48-4.59.33-6.99 1.15-3.4 3.19-6.31 5.82-8.83 4.36-4.18 9.37-6.59 14.97-7.24 1.74-.2 3.45-.17 5.01.46 2.7 1.08 3.76 3.56 2.85 6.65-.53 1.81-1.5 3.41-2.8 4.83-2.45 2.7-5.23 4.9-8.55 6.22-2.96 1.18-5.89 1.5-8.78.91-.06-.01-.13-.03-.2-.03-.03 0-.05 0-.11.01"/><path d="m47.6402 34.14c-.02.1-.01.14-.03.18-.19.41-.37.82-.57 1.23-1.73 3.49-3.75 6.85-5.78 10.19-3.12 5.14-6.36 10.21-9.17 15.5-1.2 2.25-2.31 4.54-3.06 6.94-.42 1.34-.7 2.67-.56 4.02.16 1.57 1.05 2.48 2.59 2.48.54 0 1.1-.1 1.64-.26 1.66-.47 3.18-1.34 4.61-2.39 3.49-2.56 6.33-5.66 8.11-9.61.75-1.67 1.18-3.38.98-5.1-.15-1.29-.79-2.18-2.03-2.53-.85-.24-1.76-.19-2.67 0-.7.14-1.4.34-2.15.53.53-.89 1.03-1.76 1.56-2.6.13-.2.35-.39.57-.48 1.73-.8 3.5-1.5 5.19-2.38 3.18-1.65 6.09-3.73 8.53-6.49 2.01-2.27 3.44-4.77 3.76-7.68.27-2.48-.36-4.53-2.24-5.93-1.6-1.19-3.55-1.54-5.59-1.62-2.85-.11-5.71.46-8.56 1.24-5.4 1.48-10.57 3.79-15.53 6.77-4.25 2.55-8.27 5.43-11.75 9.09-1.75 1.83-3.26 3.81-4.17 6.15-.44 1.13-.6 2.27-.4 3.38.36 2.02 1.8 3.06 3.91 2.8 1.95-.24 3.84-.89 5.67-1.81 3.61-1.82 6.71-4.41 9.56-7.35 3.73-3.85 6.84-8.15 9.64-12.66.19-.31.38-.46.73-.51.92-.11 1.85-.27 2.77-.41 1.47-.22 2.95-.44 4.46-.67m3.87 17.38c.22.1.37.16.52.23 1.87.87 2.78 2.45 2.87 4.58.14 3.2-.82 6.26-2.57 9.19-2.2 3.69-5.2 6.62-8.69 9.06-2.89 2.01-5.95 3.54-9.23 4.45-2.34.65-4.67.97-6.94.51-3.21-.65-5.05-2.65-5.54-5.93-.41-2.75.16-5.53 1.02-8.31 1.02-3.31 2.49-6.48 4.06-9.62.09-.18.17-.35.21-.57-.41.37-.81.75-1.22 1.12-3.54 3.2-7.46 5.57-11.87 6.81-2.94.83-5.87998 1.22-8.72998.62-3.17-.67-5.16-3.06-5.3899997-6.38-.2300003-3.27.7499997-6.36 2.5299997-9.34 1.67-2.81 3.84-5.22 6.25-7.42 3.78998-3.48 7.98998-6.3 12.42998-8.72 5.11-2.79 10.39-4.97 15.83-6.6 3.96-1.19 7.93-2.12 11.93-2.66 3.73-.5 7.42-.62 10.95.15 2.27.5 4.36 1.34 6.02 2.89 2.87 2.69 3.5 6.2 2.13 10.38-.88 2.69-2.46 5.03-4.41 7.16-3.34 3.63-7.34 6.2-11.68 8.19-.13.06-.26.12-.48.22"/><path d="m19.3001 5.56988c-.37-1.28-.7-2.41-1.11-3.63-.38 1.17-.73 2.27-1.13 3.63zm-5.03 2.45c.51-1.29 2.22-6.36 2.22-7.139997 0-.28-.11-.47-.37-.61l.03-.14h4.17v.14c-.25.16-.35.32-.35.59 0 .759997 1.84 6.229997 2.27 7.319997.27.68.46 1.13.82 1.3v.14h-3.52v-.14c.23-.1.45-.3.45-.79 0-.41-.18-1.06-.35-1.52h-3c-.18.55-.34 1.08-.34 1.53 0 .42.15.69.48.77l-.02.14h-3.39v-.14c.41-.2.6-.7.9-1.46"/><path d="m24.3101 5.08c0-3.18 1.34-5.08 4.44-5.08 1.27 0 2.11.53 2.53.53.27 0 .48-.17.65-.44h.14l-.06 3.4h-.13c-.92-1.31-1.9-1.74-3.03-1.74-1.52 0-2.28.89-2.28 3.28 0 2.2.69 3 2.05 3 .48 0 .82-.01 1.41-.18.03-.27.03-.53.03-.8 0-1.31-.01-1.84-.75-2.07l.03-.14h3.34l.03.14c-.59.2-.65 1.42-.65 2.46 0 .59.01 1.35.08 2.22h-.14c-.18-.24-.51-.42-.84-.42-.58 0-1.34.52-2.73.52-2.96 0-4.12-1.58-4.12-4.69"/><path d="m38.5703 9.59988c-1.24 0-2.48 0-3.74.03l-.03-.14c.37-.11.65-.66.76-1.43.1-.69.1-2.04.1-3.25s0-2.42-.1-3.08c-.11-.769997-.39-1.319997-.76-1.429997l.03-.14c1.17.03 2.46.03 3.63.03 1.54 0 2.04 0 3.72-.06l-.06 3.179997h-.14c-.55-1-1.1-1.53-3.07-1.53-.38 0-.83.01-1.2.04-.01.34-.03 1.73-.03 2.11.24.02.53.03.79.03.76 0 1.28-.17 1.68-.66h.14c-.01.49-.01 2.42 0 2.93h-.14c-.44-.58-.87-.69-1.69-.69-.27 0-.52.01-.76.03-.03.77-.01 1.76.01 2.45.39.01.82.01 1.21.01 1.86 0 2.6-.53 3.18-1.55h.14l-.06 3.2c-1.6-.04-2.2-.06-3.62-.06"/><path d="m45.1501 8.0499c.1-.69.1-2.04.1-3.25s0-2.42-.1-3.08c-.11-.769998-.39-1.319998-.76-1.429998l.03-.14h3.49l.03.14c-.32.21-.44.39-.44.65 0 .459998.27.859998 1.63 2.479998.59.7 1.3 1.46 2.1 2.32v-1.38c0-1.28-.03-2.1-.1-2.6-.11-.819998-.41-1.349998-.77-1.449998l.03-.15h3.43l.03.14c-.37.11-.65.66-.76 1.429998-.1.66-.1 1.91-.1 3.08s0 2.56.1 3.25c.11.77.39 1.32.76 1.44l-.03.14h-3.49l-.03-.14c.32-.23.45-.41.45-.66 0-.41-.21-.86-1.28-2.17-.8-.98-1.56-1.84-2.46-2.76v1.62c0 1 .01 1.91.1 2.5.11.82.41 1.35.77 1.45l-.03.16h-3.43l-.03-.14c.37-.11.65-.66.76-1.44"/><path d="m55.9302 4.94c0-2.94 1.35-4.94 4.15-4.94 1.27 0 2.11.54 2.53.54.27 0 .48-.17.65-.44h.14l-.06 3.41h-.13c-.91-1.31-1.9-1.74-3.03-1.74-1.22 0-2 .96-2 3.14s.77 3.11 2 3.11c1.15 0 2.13-.38 3.03-1.74h.13l.06 3.42h-.14c-.2-.27-.39-.45-.72-.45-.47 0-1.13.53-2.42.53-2.89 0-4.19-1.91-4.19-4.83"/><path d="m69.54 9.59988c-1.24 0-2.48 0-3.74.03l-.03-.14c.37-.11.65-.66.76-1.43.1-.69.1-2.04.1-3.25s0-2.42-.1-3.08c-.11-.769997-.39-1.319997-.76-1.429997l.03-.14c1.17.03 2.46.03 3.63.03 1.54 0 2.04 0 3.72-.06l-.06 3.179997h-.14c-.55-1-1.1-1.53-3.07-1.53-.38 0-.83.01-1.2.04-.01.34-.03 1.73-.03 2.11.24.02.53.03.79.03.76 0 1.28-.17 1.68-.66h.14c-.01.49-.01 2.42 0 2.93h-.14c-.44-.58-.87-.69-1.69-.69-.27 0-.52.01-.76.03-.03.77-.01 1.76.01 2.45.39.01.82.01 1.21.01 1.86 0 2.6-.53 3.18-1.55h.14l-.06 3.2c-1.6-.04-2.2-.06-3.62-.06"/></g></svg>