<svg fill="none" height="158" viewBox="0 0 940 158" width="940" xmlns="http://www.w3.org/2000/svg"><g fill="#ffcb00"><path d="m709.79 129.94c-11.69-6.35-29.73.29-37.72 13.86-2.4 4.07-3.86 8.6-4.43 13.21h51.19c.37-3.33.5-6.67.35-10.01-.35-7.45-2.96-13.56-9.39-17.05z"/><path d="m701.06 96.0601c-18.26 1.1-36.37 4.6399-54.18 11.8399-25.66 10.37-47.53 26.22-64.34 49.11h46.47c16.24-23.38 38.56-37.75 66.98-42.73 5.67-1 5.69-.88 7.14-6.51 1.01-3.9 1.98-7.8099 2.97-11.7099-.45-.11-.64-.21-.85-.21-1.4.06-2.79.12-4.19.21z"/><path d="m931.77 157c.78-1.24 1.55-2.49 2.31-3.75 1.69-2.82 3.25-5.7 5.06-8.88-5.65.42-10.88.77-16.11 1.27-.59.06-1.37.9-1.81 1.53-2.16 3.14-4.11 6.42-6.37 9.48-.09.12-.18.23-.26.35z"/><path d="m817.92 77.8201c-11.91 1.78-23.82 3.76-35.73 5.24-3.93.49-5.83 1.92-7.53 5.81-9.96 22.7499-20.1 45.4399-30.21 68.1399h45.68c8.41-13.04 18.16-25.05 30.22-35.33 4.97-4.24 10.2-8.11 16.17-10.49 6.07-2.42 9.64.43 8.44 6.68-.3 1.56-.59 3.18-1.23 4.66-2.9 6.65-5.88 13.28-8.91 19.89-2.24 4.88-4.55 9.73-6.83 14.6h44.15c4.03-9.46 8.4-18.82 12.43-28.28 4.33-10.12 8.41-20.34 10.22-30.9599 1.14-6.68.82-13.01-3.03-18.11-4.71-6.24-11.86-7.7-19.78-7.24-12.26.71-23.58 5.73-34.35 12.87-14.69 9.74-26.85 22.2599-37.71 36.1799-.57.74-1.18 1.45-1.77 2.18-.09-.07-.19-.13-.28-.2 7.54-15.23 15.08-30.4599 22.78-46.0399-1.17.17-1.95.29-2.74.41z"/><path d="m461.88 80.5c-5.18.72-78.87 11.71-84.05 12.41-1.38.19-2.1.76-2.71 2.09-3.11 6.84-6.32 13.64-9.49 20.46-.24.52-.38 1.07-.69 1.93 6.01-.9 80.23-11.89 86.12-12.77l10.81-24.11z"/><path d="m442.63 140.08c-8.37-3.35-17.55-3.53-26.91-2.45-19.92 2.29-38.41 8.77-55.44 19.37h55.14c.49-.02.97-.02 1.43 0h41.79c-2.12-7.62-7.57-13.54-16.01-16.92z"/><path d="m519.19 95.94c-5.51 11.36-20.15 41.08-29.84 61.06h45.47c12.11-25.29 24.93-51.96 32.73-68.52.57-1.21 1.26-1.58 2.42-1.74 5.55-.78 325.32-48.42 330.86-49.16 1.44-.19 2.24-.68 2.87-2.15 2.86-6.59 5.85-13.14 8.78-19.71.29-.66.53-1.34.98-2.47-6.57.98-326.89 48.63-333.41 49.6 6.17-12.54 23.73-50.56 29.78-62.85-.63.03-.97.0199997-1.31.0699997-14.57 2.1800003-29.15 4.3800003-43.72 6.5000003-1.41.2-1.92.98-2.49 2.08-5.79 11.26-23.25 48.44-29.01 59.71-.63 1.24-1.33 1.74-2.59 1.92-5.18.72-25.46 3.79-30.64 4.49-1.38.19-2.1.76-2.71 2.09-3.11 6.84-6.32 13.64-9.49 20.46-.24.52-.38 1.07-.69 1.93 6.01-.9 26.81-3.97 32.71-4.85-.32.7-.5 1.13-.71 1.54z"/><path d="m60.28 157c17.6-17.43 37.51-31.52 58.44-44.09 26.63-15.9901 54.39-28.3801 83.41-36.3401 15.3-4.2 30.68-7.26 45.97-6.66 11 .43 21.47 2.32 30.05 8.7 10.12 7.51 13.51 18.49 12.04 31.8401-1.71 15.61-9.39 29.07-20.18 41.24-1.62 1.82-3.27 3.59-4.96 5.3h43.03c2.16-2.1 4.28-4.27 6.35-6.51 10.49-11.4 18.96-24 23.7-38.43 7.36-22.4201 3.98-41.2601-11.44-55.7401-8.9-8.36-20.13-12.87-32.34-15.54-18.97-4.15-38.75-3.53-58.8-.82-21.48 2.91-42.84 7.9-64.09 14.27-29.2 8.76-57.54 20.49-85 35.46-23.83 12.9801-46.37 28.1201-66.74 46.8101-7.03 6.45-13.67 13.23-19.72 20.5h60.3z"/><path d="m189.48 108.02c-1.88.23-2.88 1.07-3.9 2.72-9.94 16.06-20.64 31.59-32.54 46.26h45.53c9.34-15.49 18.48-31.07 26.47-47.19 1.08-2.18 2.07-4.39 3.09-6.6.09-.19.07-.42.15-.95-8.11 1.21-16.02 2.4-23.93 3.58-4.96.74-9.91 1.58-14.86 2.18z"/></g></svg>