<?xml version="1.0" encoding="utf-8"?>
<!-- Generator: Adobe Illustrator 28.7.3, SVG Export Plug-In . SVG Version: 9.03 Build 54978)  -->
<svg version="1.0" id="Calque_1" xmlns="http://www.w3.org/2000/svg" xmlns:xlink="http://www.w3.org/1999/xlink" x="0px" y="0px"
	 viewBox="0 0 150 80" enable-background="new 0 0 150 80" xml:space="preserve">
<g>
	<path d="M59.3,56.9c-0.1,2.3,1.1,4,3.5,4.1c1.7,0.1,3.3-0.4,5-1c3.3-1.3,6.1-3.4,8.7-5.9c0.1-0.1,0.2-0.2,0.2-0.3
		c0.7-2.5,1.8-4.8,2.9-7.1c1.1-2.2,4.5-9.2,5.6-11.4c0-0.1,0.1-0.1,0.1-0.2c-0.9,0.1-4,0.6-4.9,0.7c0-0.1,0.1-0.2,0.1-0.3
		c0.5-1,1-2.1,1.4-3.1c0.1-0.2,0.2-0.3,0.4-0.3c0.8-0.1,3.8-0.6,4.6-0.7c0.2,0,0.3-0.1,0.4-0.3c0.9-1.7,3.5-7.3,4.4-9
		c0.1-0.2,0.2-0.3,0.4-0.3c2.2-0.3,4.4-0.7,6.6-1c0.1,0,0.1,0,0.2,0c-0.9,1.9-3.6,7.6-4.5,9.5c1-0.1,49.3-7.3,50.3-7.5
		c-0.1,0.2-0.1,0.3-0.1,0.4c-0.4,1-0.9,2-1.3,3c-0.1,0.2-0.2,0.3-0.4,0.3c-0.8,0.1-49.1,7.3-49.9,7.4c-0.2,0-0.3,0.1-0.4,0.3
		c-2.1,4.4-6.5,13.5-8.5,17.9c-0.4,0.9-0.7,1.8-0.8,2.7c-0.1,1.2,0.5,1.9,1.5,1.9c0.6,0,1.2-0.2,1.7-0.5c1.5-0.8,2.8-1.9,4-3.2
		c0.2-0.2,0.4-0.4,0.5-0.6c0.6-0.6,1.1-1.3,1.2-2.2c0.3-1.9,1.1-3.6,2.2-5.2c2.6-3.8,6-6.4,10.1-8c2.7-1.1,5.4-1.6,8.2-1.8
		c0.2,0,0.4,0,0.6,0c0,0,0.1,0,0.1,0c-0.1,0.6-0.3,1.2-0.4,1.8c-0.2,0.8-0.2,0.8-1.1,1c-5.1,0.9-8.9,3.8-11.4,8.5
		c-0.8,1.5-1.2,3.1-0.9,4.7c0.4,2.2,2.1,3.1,4.4,2.5c2.5-0.7,4.6-2.7,5.6-4.3c-0.3-0.3-0.5-0.6-0.8-0.9c-1.5-1.5-1.8-4.1-0.6-6.1
		c1.2-2,3.9-3,5.7-2.1c1,0.5,1.4,1.4,1.4,2.6c0.1,1.5-0.2,3-0.8,4.5c0,0.1-0.1,0.2-0.1,0.4c0.6,0,1.1,0,1.6,0c0.4,0,0.9-0.1,1.3-0.1
		c0.3,0,0.4-0.1,0.5-0.4c1.9-4.4,3.9-8.8,5.8-13.2c0.3-0.6,0.5-0.8,1.1-0.9c1.8-0.2,3.6-0.5,5.4-0.8c0.1,0,0.2,0,0.4-0.1
		c-1.2,2.3-2.3,4.6-3.4,6.9c0,0,0,0,0,0c0.1-0.1,0.2-0.2,0.3-0.3c1.6-2.1,3.5-4,5.7-5.5c1.6-1.1,3.3-1.8,5.2-1.9
		c1.2-0.1,2.3,0.2,3,1.1c0.6,0.8,0.6,1.7,0.5,2.7c-0.3,1.6-0.9,3.1-1.5,4.7c-0.7,1.7-1.5,3.3-2.2,5c-0.3,0.7-0.4,1.5-0.6,2.2
		c-0.1,0.3,0,0.6,0.1,0.9c0.2,0.6,0.8,0.9,1.5,0.7c0.5-0.1,1-0.3,1.5-0.6c1.7-1,3.1-2.4,4.3-4c0.3-0.5,0.6-1,1-1.4
		c0.1-0.1,0.2-0.2,0.3-0.2c0.8-0.1,1.6-0.1,2.4-0.2c-0.3,0.5-0.5,0.9-0.8,1.3c-1.8,3-4,5.5-6.9,7.5c-2.3,1.5-4.6,2.4-7.2,2.5
		c-0.8,0-1.5-0.1-2.1-0.4c-1.1-0.5-1.5-1.5-1.6-2.8c-0.1-1.3,0.2-2.5,0.7-3.7c0.7-1.6,1.5-3.2,2.2-4.8c0.5-1,0.9-2,1.3-3
		c0.1-0.2,0.1-0.5,0.2-0.7c0.2-0.9-0.4-1.4-1.3-1c-0.9,0.4-1.7,0.9-2.4,1.6c-2.4,2-4.1,4.4-5.6,7.1c-1.2,2.1-2,4.4-2.7,6.6
		c-0.2,0.7-0.5,1.4-0.7,2.1c-2.5,0.4-5,0.7-7.5,1.1c0.9-2,1.8-3.9,2.7-5.9c-0.4,0-0.8,0.1-1.2,0.1c-0.6,0-1.2,0-1.8,0
		c-0.3,0-0.4,0.1-0.6,0.3c-2.2,3.2-5.1,5.5-8.5,7.1c-1.5,0.7-3,1.2-4.6,1.3c-1.8,0.2-3.6,0-5.1-0.9c-1.3-0.8-2.1-1.9-2.5-3.4
		c0-0.1-0.1-0.2-0.1-0.3c0,0,0,0-0.1-0.1c-0.5,0.6-0.9,1.1-1.4,1.6c-1.6,1.8-3.4,3.3-5.4,4.4c-2,1.1-4.1,1.6-6.1,1.2
		c-1.7-0.4-2.7-1.5-2.9-3.3c0-0.2,0-0.3-0.1-0.5c-0.1,0.1-0.2,0.2-0.3,0.3c-3.1,2.6-6.4,4.6-10.1,5.8c-2.6,0.9-5.3,1.4-7.9,1
		c-2.7-0.4-4.6-1.8-5.3-4.5c-0.5-1.8-0.4-3.7,0.3-5.7c0.9-2.8,2.6-5.1,4.7-7.2c3.5-3.4,7.6-5.3,12.1-5.9c1.4-0.2,2.8-0.1,4.1,0.4
		c2.2,0.9,3,2.9,2.3,5.4c-0.4,1.5-1.2,2.8-2.3,3.9c-2,2.2-4.2,4-6.9,5c-2.4,1-4.8,1.2-7.1,0.7C59.5,56.9,59.5,56.9,59.3,56.9
		C59.4,56.8,59.4,56.8,59.3,56.9z M74.8,36.5c-0.9,0.1-12.1,1.8-13,1.9c0-0.1,0.1-0.2,0.1-0.3c0.5-1,1-2.1,1.4-3.1
		c0.1-0.2,0.2-0.3,0.4-0.3c0.8-0.1,11.9-1.8,12.7-1.9L74.8,36.5z M59.7,54.1c0.1,0,0.1,0,0.1,0c0.1,0,0.2,0,0.2,0
		c3.5-0.2,6.5-1.8,9-4.7c0.8-0.9,1.4-2,1.7-3.1c0.3-1.5-0.4-2.2-1.9-1.8c-0.9,0.2-1.7,0.6-2.5,1.1c-1.7,1.1-3.2,2.5-4.4,4.1
		C61,51,60.2,52.5,59.7,54.1z"/>
	<path d="M44.4,50.2c0.2,0.1,0.3,0.1,0.4,0.2c1.5,0.7,2.2,2,2.3,3.7c0.1,2.6-0.7,5.1-2.1,7.4c-1.8,3-4.2,5.4-7,7.3
		c-2.3,1.6-4.8,2.9-7.5,3.6c-1.9,0.5-3.8,0.8-5.6,0.4c-2.6-0.5-4.1-2.1-4.5-4.8c-0.3-2.2,0.1-4.5,0.8-6.7c0.8-2.7,2-5.2,3.3-7.8
		c0.1-0.1,0.1-0.3,0.2-0.5c-0.3,0.3-0.7,0.6-1,0.9c-2.9,2.6-6,4.5-9.6,5.5c-2.4,0.7-4.8,1-7.1,0.5c-2.6-0.5-4.2-2.5-4.4-5.2
		c-0.2-2.6,0.6-5.1,2.1-7.6c1.4-2.3,3.1-4.2,5.1-6c3.1-2.8,6.5-5.1,10.1-7.1c4.1-2.3,8.4-4,12.8-5.3c3.2-1,6.4-1.7,9.7-2.2
		c3-0.4,6-0.5,8.9,0.1c1.8,0.4,3.5,1.1,4.9,2.3c2.3,2.2,2.8,5,1.7,8.4c-0.7,2.2-2,4.1-3.6,5.8c-2.7,2.9-5.9,5-9.5,6.6
		C44.7,50.1,44.6,50.1,44.4,50.2z M41.2,36.1c0,0.1,0,0.1,0,0.1c-0.2,0.3-0.3,0.7-0.5,1c-1.4,2.8-3,5.5-4.7,8.3
		c-2.5,4.2-5.1,8.3-7.4,12.6c-1,1.8-1.9,3.7-2.5,5.6c-0.3,1.1-0.6,2.2-0.5,3.3c0.1,1.3,0.9,2,2.1,2c0.4,0,0.9-0.1,1.3-0.2
		c1.3-0.4,2.6-1.1,3.7-1.9c2.8-2.1,5.1-4.6,6.6-7.8c0.6-1.4,1-2.7,0.8-4.1c-0.1-1-0.6-1.8-1.6-2c-0.7-0.2-1.4-0.2-2.2,0
		c-0.6,0.1-1.1,0.3-1.7,0.4c0.4-0.7,0.8-1.4,1.3-2.1c0.1-0.2,0.3-0.3,0.5-0.4c1.4-0.6,2.8-1.2,4.2-1.9c2.6-1.3,4.9-3,6.9-5.3
		c1.6-1.8,2.8-3.9,3-6.2c0.2-2-0.3-3.7-1.8-4.8c-1.3-1-2.9-1.2-4.5-1.3c-2.3-0.1-4.6,0.4-6.9,1c-4.4,1.2-8.6,3.1-12.6,5.5
		c-3.4,2.1-6.7,4.4-9.5,7.4c-1.4,1.5-2.6,3.1-3.4,5c-0.4,0.9-0.5,1.8-0.3,2.7c0.3,1.6,1.5,2.5,3.2,2.3c1.6-0.2,3.1-0.7,4.6-1.5
		c2.9-1.5,5.4-3.6,7.7-6c3-3.1,5.5-6.6,7.8-10.3c0.2-0.2,0.3-0.4,0.6-0.4c0.7-0.1,1.5-0.2,2.2-0.3C38.8,36.5,40,36.3,41.2,36.1z"/>
</g>
<g>
	<path d="M14.8,14.3c0.4-1,1.6-4.7,1.6-5.3c0-0.2-0.1-0.3-0.3-0.4l0-0.1h3.1v0.1C19.1,8.7,19,8.8,19,9c0,0.6,1.4,4.6,1.7,5.4
		c0.2,0.5,0.3,0.8,0.6,1l0,0.1h-2.6l0-0.1c0.2-0.1,0.3-0.2,0.3-0.6c0-0.3-0.1-0.8-0.3-1.1h-2.2c-0.1,0.4-0.2,0.8-0.2,1.1
		c0,0.3,0.1,0.5,0.4,0.6l0,0.1h-2.5v-0.1C14.5,15.2,14.6,14.9,14.8,14.3z M18.5,12.5c-0.3-0.9-0.5-1.8-0.8-2.7
		c-0.3,0.9-0.5,1.7-0.8,2.7H18.5z"/>
	<path d="M21.6,12.1c0-2.3,1-3.7,3.3-3.7c0.9,0,1.6,0.4,1.9,0.4c0.2,0,0.4-0.1,0.5-0.3h0.1l0,2.5h-0.1c-0.7-1-1.4-1.3-2.2-1.3
		c-1.1,0-1.7,0.7-1.7,2.4c0,1.6,0.5,2.2,1.5,2.2c0.4,0,0.6,0,1-0.1c0-0.2,0-0.4,0-0.6c0-1,0-1.4-0.5-1.5l0-0.1h2.5l0,0.1
		c-0.4,0.1-0.5,1-0.5,1.8c0,0.4,0,1,0.1,1.6l-0.1,0c-0.1-0.2-0.4-0.3-0.6-0.3c-0.4,0-1,0.4-2,0.4C22.5,15.6,21.6,14.4,21.6,12.1z"/>
	<path d="M31.6,15.5c-0.9,0-1.8,0-2.8,0l0-0.1c0.3-0.1,0.5-0.5,0.6-1.1c0.1-0.5,0.1-1.5,0.1-2.4c0-0.9,0-1.8-0.1-2.3
		c-0.1-0.6-0.3-1-0.6-1.1l0-0.1c0.9,0,1.8,0,2.7,0c1.1,0,1.5,0,2.7,0l0,2.3h-0.1c-0.4-0.7-0.8-1.1-2.3-1.1c-0.3,0-0.6,0-0.9,0
		c0,0.2,0,1.3,0,1.6c0.2,0,0.4,0,0.6,0c0.6,0,0.9-0.1,1.2-0.5h0.1c0,0.4,0,1.8,0,2.2h-0.1c-0.3-0.4-0.6-0.5-1.2-0.5
		c-0.2,0-0.4,0-0.6,0c0,0.6,0,1.3,0,1.8c0.3,0,0.6,0,0.9,0c1.4,0,1.9-0.4,2.3-1.1h0.1l0,2.4C33,15.5,32.6,15.5,31.6,15.5z"/>
	<path d="M35.8,14.3c0.1-0.5,0.1-1.5,0.1-2.4c0-0.9,0-1.8-0.1-2.3c-0.1-0.6-0.3-1-0.6-1.1l0-0.1h2.6l0,0.1c-0.2,0.2-0.3,0.3-0.3,0.5
		c0,0.3,0.2,0.6,1.2,1.8c0.4,0.5,1,1.1,1.5,1.7v-1c0-0.9,0-1.5-0.1-1.9c-0.1-0.6-0.3-1-0.6-1.1l0-0.1h2.5l0,0.1
		c-0.3,0.1-0.5,0.5-0.6,1.1c-0.1,0.5-0.1,1.4-0.1,2.3c0,0.9,0,1.9,0.1,2.4c0.1,0.6,0.3,1,0.6,1.1l0,0.1h-2.6l0-0.1
		c0.2-0.2,0.3-0.3,0.3-0.5c0-0.3-0.2-0.6-0.9-1.6c-0.6-0.7-1.2-1.4-1.8-2v1.2c0,0.7,0,1.4,0.1,1.8c0.1,0.6,0.3,1,0.6,1.1l0,0.1h-2.5
		l0-0.1C35.5,15.3,35.7,14.9,35.8,14.3z"/>
	<path d="M43.2,12c0-2.2,1-3.6,3.1-3.6c0.9,0,1.6,0.4,1.9,0.4c0.2,0,0.4-0.1,0.5-0.3h0.1l0,2.5h-0.1c-0.7-1-1.4-1.3-2.2-1.3
		c-0.9,0-1.5,0.7-1.5,2.3c0,1.7,0.6,2.3,1.5,2.3c0.9,0,1.6-0.3,2.2-1.3h0.1l0,2.5h-0.1c-0.1-0.2-0.3-0.3-0.5-0.3
		c-0.3,0-0.8,0.4-1.8,0.4C44.1,15.6,43.2,14.2,43.2,12z"/>
	<path d="M52.6,15.5c-0.9,0-1.8,0-2.8,0l0-0.1c0.3-0.1,0.5-0.5,0.6-1.1c0.1-0.5,0.1-1.5,0.1-2.4c0-0.9,0-1.8-0.1-2.3
		c-0.1-0.6-0.3-1-0.6-1.1l0-0.1c0.9,0,1.8,0,2.7,0c1.1,0,1.5,0,2.7,0l0,2.3h-0.1c-0.4-0.7-0.8-1.1-2.3-1.1c-0.3,0-0.6,0-0.9,0
		c0,0.2,0,1.3,0,1.6c0.2,0,0.4,0,0.6,0c0.6,0,0.9-0.1,1.2-0.5h0.1c0,0.4,0,1.8,0,2.2h-0.1c-0.3-0.4-0.6-0.5-1.2-0.5
		c-0.2,0-0.4,0-0.6,0c0,0.6,0,1.3,0,1.8c0.3,0,0.6,0,0.9,0c1.4,0,1.9-0.4,2.3-1.1h0.1l0,2.4C54.1,15.5,53.7,15.5,52.6,15.5z"/>
</g>
</svg>
