<svg fill="none" height="54" viewBox="0 0 54 54" width="54" xmlns="http://www.w3.org/2000/svg"><g fill="#1d1d1b"><path d="m18.0898 24.2638-8.01-1-3.10996 3.12 7.88996 3c-.72 1.39-1.17 2.61-1.28 3.61l.11.11c1.06-.11 2.39-.61 3.84-1.39l2.95 7.62 3.11-3.12-.94-7.78c2.17-1.56 4.45-3.45 6.67-5.34l8.06 18.07 2.61-2.61-1.56-23.69c2.39-2.33 3.95-3.89 3.95-3.89 4.39-4.39001 5.34-7.95001 3.39-9.90001l-.17-.109999c-1.95-1.95-5.5-1.0000001-9.9 3.389999 0 0-1.5 1.45-3.73 3.78l-23.51996-1.56-2.61 2.61 17.84996 8.01001c-2 2.33-3.95 4.78-5.62 7.06z"/><path d="m47.13 41.1636v6.78h-41.2v-6.78h-5.93v12.71h53.06v-12.71z"/></g></svg>